ISO-10303-21;
HEADER;
/* Generated by software containing ST-Developer
 * from STEP Tools, Inc. (www.steptools.com) 
 */
/* OPTION: using custom renumber hook */

FILE_DESCRIPTION(
/* description */ ('STEP AP242',
'CAx-IF Rec.Pracs.---Representation and Presentation of Product Manufa
cturing Information (PMI)---4.0---2014-10-13',
'CAx-IF Rec.Pracs.---3D Tessellated Geometry---0.4---2014-09-14','2;1'),

/* implementation_level */ '2;1');

FILE_NAME(
/* name */ '68e2da5f18cff12844be409c',
/* time_stamp */ '2025-10-05T20:51:43Z',
/* author */ (''),
/* organization */ (''),
/* preprocessor_version */ 'ST-DEVELOPER v20',
/* originating_system */ 'ONSHAPE BY PTC INC, 1.204',
/* authorisation */ '  ');

FILE_SCHEMA (('AP242_MANAGED_MODEL_BASED_3D_ENGINEERING_MIM_LF { 1 0 10303 442 1 1 4 }'));
ENDSEC;

DATA;
#10=SHAPE_REPRESENTATION_RELATIONSHIP('','',#1658,#11);
#11=ADVANCED_BREP_SHAPE_REPRESENTATION('',(#1656),#2496);
#12=SPHERICAL_SURFACE('',#1733,0.001);
#13=SPHERICAL_SURFACE('',#1739,0.001);
#14=SPHERICAL_SURFACE('',#1745,0.001);
#15=SPHERICAL_SURFACE('',#1751,0.001);
#16=CYLINDRICAL_SURFACE('',#1729,0.001);
#17=CYLINDRICAL_SURFACE('',#1731,0.001);
#18=CYLINDRICAL_SURFACE('',#1735,0.001);
#19=CYLINDRICAL_SURFACE('',#1737,0.001);
#20=CYLINDRICAL_SURFACE('',#1741,0.001);
#21=CYLINDRICAL_SURFACE('',#1743,0.001);
#22=CYLINDRICAL_SURFACE('',#1747,0.001);
#23=CYLINDRICAL_SURFACE('',#1749,0.001);
#24=CYLINDRICAL_SURFACE('',#1753,0.001);
#25=DRAUGHTING_PRE_DEFINED_COLOUR('blue');
#26=DRAUGHTING_PRE_DEFINED_COLOUR('red');
#27=OVER_RIDING_STYLED_ITEM('',(#1409),#1350,#1407);
#28=OVER_RIDING_STYLED_ITEM('',(#1410),#1351,#1407);
#29=OVER_RIDING_STYLED_ITEM('',(#1411),#1352,#1407);
#30=OVER_RIDING_STYLED_ITEM('',(#1412),#1353,#1407);
#31=OVER_RIDING_STYLED_ITEM('',(#1413),#1354,#1407);
#32=OVER_RIDING_STYLED_ITEM('',(#1414),#1355,#1407);
#33=OVER_RIDING_STYLED_ITEM('',(#1415),#1356,#1407);
#34=OVER_RIDING_STYLED_ITEM('',(#1416),#1357,#1407);
#35=OVER_RIDING_STYLED_ITEM('',(#1417),#1358,#1407);
#36=OVER_RIDING_STYLED_ITEM('',(#1418),#1359,#1407);
#37=OVER_RIDING_STYLED_ITEM('',(#1419),#1360,#1407);
#38=OVER_RIDING_STYLED_ITEM('',(#1420),#1361,#1407);
#39=OVER_RIDING_STYLED_ITEM('',(#1421),#1362,#1407);
#40=OVER_RIDING_STYLED_ITEM('',(#1422),#1363,#1407);
#41=OVER_RIDING_STYLED_ITEM('',(#1423),#1364,#1407);
#42=OVER_RIDING_STYLED_ITEM('',(#1424),#1365,#1407);
#43=OVER_RIDING_STYLED_ITEM('',(#1425),#1366,#1407);
#44=OVER_RIDING_STYLED_ITEM('',(#1426),#1367,#1407);
#45=OVER_RIDING_STYLED_ITEM('',(#1427),#1368,#1407);
#46=OVER_RIDING_STYLED_ITEM('',(#1428),#1369,#1407);
#47=OVER_RIDING_STYLED_ITEM('',(#1429),#1370,#1407);
#48=OVER_RIDING_STYLED_ITEM('',(#1430),#1371,#1407);
#49=OVER_RIDING_STYLED_ITEM('',(#1431),#1372,#1407);
#50=OVER_RIDING_STYLED_ITEM('',(#1432),#1373,#1407);
#51=OVER_RIDING_STYLED_ITEM('',(#1433),#1374,#1407);
#52=OVER_RIDING_STYLED_ITEM('',(#1434),#1375,#1407);
#53=OVER_RIDING_STYLED_ITEM('',(#1435),#1376,#1407);
#54=OVER_RIDING_STYLED_ITEM('',(#1436),#1377,#1407);
#55=OVER_RIDING_STYLED_ITEM('',(#1437),#1378,#1407);
#56=OVER_RIDING_STYLED_ITEM('',(#1438),#1379,#1407);
#57=OVER_RIDING_STYLED_ITEM('',(#1439),#1380,#1407);
#58=OVER_RIDING_STYLED_ITEM('',(#1440),#1381,#1407);
#59=OVER_RIDING_STYLED_ITEM('',(#1441),#1382,#1407);
#60=OVER_RIDING_STYLED_ITEM('',(#1442),#1383,#1407);
#61=OVER_RIDING_STYLED_ITEM('',(#1443),#1384,#1407);
#62=OVER_RIDING_STYLED_ITEM('',(#1444),#1385,#1407);
#63=OVER_RIDING_STYLED_ITEM('',(#1445),#1386,#1407);
#64=OVER_RIDING_STYLED_ITEM('',(#1446),#1387,#1407);
#65=OVER_RIDING_STYLED_ITEM('',(#1447),#1388,#1407);
#66=OVER_RIDING_STYLED_ITEM('',(#1448),#1389,#1407);
#67=CIRCLE('',#1663,0.001);
#68=CIRCLE('',#1664,0.001);
#69=CIRCLE('',#1671,0.001);
#70=CIRCLE('',#1683,0.001);
#71=CIRCLE('',#1725,0.001);
#72=CIRCLE('',#1727,0.001);
#73=CIRCLE('',#1730,0.001);
#74=CIRCLE('',#1732,0.001);
#75=CIRCLE('',#1734,0.001);
#76=CIRCLE('',#1736,0.001);
#77=CIRCLE('',#1738,0.001);
#78=CIRCLE('',#1740,0.001);
#79=CIRCLE('',#1742,0.001);
#80=CIRCLE('',#1744,0.001);
#81=CIRCLE('',#1746,0.001);
#82=CIRCLE('',#1748,0.001);
#83=CIRCLE('',#1750,0.001);
#84=CIRCLE('',#1752,0.001);
#85=ORIENTED_EDGE('',*,*,#457,.F.);
#86=ORIENTED_EDGE('',*,*,#458,.T.);
#87=ORIENTED_EDGE('',*,*,#459,.T.);
#88=ORIENTED_EDGE('',*,*,#460,.T.);
#89=ORIENTED_EDGE('',*,*,#461,.T.);
#90=ORIENTED_EDGE('',*,*,#462,.T.);
#91=ORIENTED_EDGE('',*,*,#463,.T.);
#92=ORIENTED_EDGE('',*,*,#464,.T.);
#93=ORIENTED_EDGE('',*,*,#465,.F.);
#94=ORIENTED_EDGE('',*,*,#466,.T.);
#95=ORIENTED_EDGE('',*,*,#467,.T.);
#96=ORIENTED_EDGE('',*,*,#468,.T.);
#97=ORIENTED_EDGE('',*,*,#469,.T.);
#98=ORIENTED_EDGE('',*,*,#470,.T.);
#99=ORIENTED_EDGE('',*,*,#471,.T.);
#100=ORIENTED_EDGE('',*,*,#472,.F.);
#101=ORIENTED_EDGE('',*,*,#473,.T.);
#102=ORIENTED_EDGE('',*,*,#474,.F.);
#103=ORIENTED_EDGE('',*,*,#475,.F.);
#104=ORIENTED_EDGE('',*,*,#476,.T.);
#105=ORIENTED_EDGE('',*,*,#477,.T.);
#106=ORIENTED_EDGE('',*,*,#478,.T.);
#107=ORIENTED_EDGE('',*,*,#479,.F.);
#108=ORIENTED_EDGE('',*,*,#480,.F.);
#109=ORIENTED_EDGE('',*,*,#460,.F.);
#110=ORIENTED_EDGE('',*,*,#481,.T.);
#111=ORIENTED_EDGE('',*,*,#482,.T.);
#112=ORIENTED_EDGE('',*,*,#483,.T.);
#113=ORIENTED_EDGE('',*,*,#484,.F.);
#114=ORIENTED_EDGE('',*,*,#485,.F.);
#115=ORIENTED_EDGE('',*,*,#486,.T.);
#116=ORIENTED_EDGE('',*,*,#487,.T.);
#117=ORIENTED_EDGE('',*,*,#488,.F.);
#118=ORIENTED_EDGE('',*,*,#489,.T.);
#119=ORIENTED_EDGE('',*,*,#490,.T.);
#120=ORIENTED_EDGE('',*,*,#491,.F.);
#121=ORIENTED_EDGE('',*,*,#492,.F.);
#122=ORIENTED_EDGE('',*,*,#493,.T.);
#123=ORIENTED_EDGE('',*,*,#494,.T.);
#124=ORIENTED_EDGE('',*,*,#495,.F.);
#125=ORIENTED_EDGE('',*,*,#496,.F.);
#126=ORIENTED_EDGE('',*,*,#497,.T.);
#127=ORIENTED_EDGE('',*,*,#498,.T.);
#128=ORIENTED_EDGE('',*,*,#499,.F.);
#129=ORIENTED_EDGE('',*,*,#500,.F.);
#130=ORIENTED_EDGE('',*,*,#501,.T.);
#131=ORIENTED_EDGE('',*,*,#502,.T.);
#132=ORIENTED_EDGE('',*,*,#503,.T.);
#133=ORIENTED_EDGE('',*,*,#504,.F.);
#134=ORIENTED_EDGE('',*,*,#505,.F.);
#135=ORIENTED_EDGE('',*,*,#482,.F.);
#136=ORIENTED_EDGE('',*,*,#506,.T.);
#137=ORIENTED_EDGE('',*,*,#507,.T.);
#138=ORIENTED_EDGE('',*,*,#508,.T.);
#139=ORIENTED_EDGE('',*,*,#509,.F.);
#140=ORIENTED_EDGE('',*,*,#510,.T.);
#141=ORIENTED_EDGE('',*,*,#486,.F.);
#142=ORIENTED_EDGE('',*,*,#511,.F.);
#143=ORIENTED_EDGE('',*,*,#512,.F.);
#144=ORIENTED_EDGE('',*,*,#513,.T.);
#145=ORIENTED_EDGE('',*,*,#514,.T.);
#146=ORIENTED_EDGE('',*,*,#515,.T.);
#147=ORIENTED_EDGE('',*,*,#496,.T.);
#148=ORIENTED_EDGE('',*,*,#516,.F.);
#149=ORIENTED_EDGE('',*,*,#517,.T.);
#150=ORIENTED_EDGE('',*,*,#518,.T.);
#151=ORIENTED_EDGE('',*,*,#492,.T.);
#152=ORIENTED_EDGE('',*,*,#519,.F.);
#153=ORIENTED_EDGE('',*,*,#520,.T.);
#154=ORIENTED_EDGE('',*,*,#521,.T.);
#155=ORIENTED_EDGE('',*,*,#522,.F.);
#156=ORIENTED_EDGE('',*,*,#523,.T.);
#157=ORIENTED_EDGE('',*,*,#524,.T.);
#158=ORIENTED_EDGE('',*,*,#525,.T.);
#159=ORIENTED_EDGE('',*,*,#526,.F.);
#160=ORIENTED_EDGE('',*,*,#527,.T.);
#161=ORIENTED_EDGE('',*,*,#489,.F.);
#162=ORIENTED_EDGE('',*,*,#528,.F.);
#163=ORIENTED_EDGE('',*,*,#491,.T.);
#164=ORIENTED_EDGE('',*,*,#529,.F.);
#165=ORIENTED_EDGE('',*,*,#530,.F.);
#166=ORIENTED_EDGE('',*,*,#519,.T.);
#167=ORIENTED_EDGE('',*,*,#490,.F.);
#168=ORIENTED_EDGE('',*,*,#527,.F.);
#169=ORIENTED_EDGE('',*,*,#531,.T.);
#170=ORIENTED_EDGE('',*,*,#529,.T.);
#171=ORIENTED_EDGE('',*,*,#526,.T.);
#172=ORIENTED_EDGE('',*,*,#532,.T.);
#173=ORIENTED_EDGE('',*,*,#520,.F.);
#174=ORIENTED_EDGE('',*,*,#530,.T.);
#175=ORIENTED_EDGE('',*,*,#531,.F.);
#176=ORIENTED_EDGE('',*,*,#485,.T.);
#177=ORIENTED_EDGE('',*,*,#533,.F.);
#178=ORIENTED_EDGE('',*,*,#534,.F.);
#179=ORIENTED_EDGE('',*,*,#511,.T.);
#180=ORIENTED_EDGE('',*,*,#484,.T.);
#181=ORIENTED_EDGE('',*,*,#535,.F.);
#182=ORIENTED_EDGE('',*,*,#536,.F.);
#183=ORIENTED_EDGE('',*,*,#533,.T.);
#184=ORIENTED_EDGE('',*,*,#483,.F.);
#185=ORIENTED_EDGE('',*,*,#513,.F.);
#186=ORIENTED_EDGE('',*,*,#537,.T.);
#187=ORIENTED_EDGE('',*,*,#535,.T.);
#188=ORIENTED_EDGE('',*,*,#512,.T.);
#189=ORIENTED_EDGE('',*,*,#534,.T.);
#190=ORIENTED_EDGE('',*,*,#536,.T.);
#191=ORIENTED_EDGE('',*,*,#537,.F.);
#192=ORIENTED_EDGE('',*,*,#493,.F.);
#193=ORIENTED_EDGE('',*,*,#518,.F.);
#194=ORIENTED_EDGE('',*,*,#538,.T.);
#195=ORIENTED_EDGE('',*,*,#539,.T.);
#196=ORIENTED_EDGE('',*,*,#495,.T.);
#197=ORIENTED_EDGE('',*,*,#540,.F.);
#198=ORIENTED_EDGE('',*,*,#541,.F.);
#199=ORIENTED_EDGE('',*,*,#516,.T.);
#200=ORIENTED_EDGE('',*,*,#494,.F.);
#201=ORIENTED_EDGE('',*,*,#539,.F.);
#202=ORIENTED_EDGE('',*,*,#542,.T.);
#203=ORIENTED_EDGE('',*,*,#540,.T.);
#204=ORIENTED_EDGE('',*,*,#538,.F.);
#205=ORIENTED_EDGE('',*,*,#517,.F.);
#206=ORIENTED_EDGE('',*,*,#541,.T.);
#207=ORIENTED_EDGE('',*,*,#542,.F.);
#208=ORIENTED_EDGE('',*,*,#487,.F.);
#209=ORIENTED_EDGE('',*,*,#510,.F.);
#210=ORIENTED_EDGE('',*,*,#543,.T.);
#211=ORIENTED_EDGE('',*,*,#544,.T.);
#212=ORIENTED_EDGE('',*,*,#488,.T.);
#213=ORIENTED_EDGE('',*,*,#544,.F.);
#214=ORIENTED_EDGE('',*,*,#545,.F.);
#215=ORIENTED_EDGE('',*,*,#528,.T.);
#216=ORIENTED_EDGE('',*,*,#509,.T.);
#217=ORIENTED_EDGE('',*,*,#546,.T.);
#218=ORIENTED_EDGE('',*,*,#522,.T.);
#219=ORIENTED_EDGE('',*,*,#545,.T.);
#220=ORIENTED_EDGE('',*,*,#543,.F.);
#221=ORIENTED_EDGE('',*,*,#477,.F.);
#222=ORIENTED_EDGE('',*,*,#547,.F.);
#223=ORIENTED_EDGE('',*,*,#548,.T.);
#224=ORIENTED_EDGE('',*,*,#549,.T.);
#225=ORIENTED_EDGE('',*,*,#480,.T.);
#226=ORIENTED_EDGE('',*,*,#550,.F.);
#227=ORIENTED_EDGE('',*,*,#551,.F.);
#228=ORIENTED_EDGE('',*,*,#547,.T.);
#229=ORIENTED_EDGE('',*,*,#479,.T.);
#230=ORIENTED_EDGE('',*,*,#552,.F.);
#231=ORIENTED_EDGE('',*,*,#553,.F.);
#232=ORIENTED_EDGE('',*,*,#550,.T.);
#233=ORIENTED_EDGE('',*,*,#478,.F.);
#234=ORIENTED_EDGE('',*,*,#549,.F.);
#235=ORIENTED_EDGE('',*,*,#554,.T.);
#236=ORIENTED_EDGE('',*,*,#552,.T.);
#237=ORIENTED_EDGE('',*,*,#555,.F.);
#238=ORIENTED_EDGE('',*,*,#556,.T.);
#239=ORIENTED_EDGE('',*,*,#557,.T.);
#240=ORIENTED_EDGE('',*,*,#558,.F.);
#241=ORIENTED_EDGE('',*,*,#548,.F.);
#242=ORIENTED_EDGE('',*,*,#551,.T.);
#243=ORIENTED_EDGE('',*,*,#553,.T.);
#244=ORIENTED_EDGE('',*,*,#554,.F.);
#245=ORIENTED_EDGE('',*,*,#498,.F.);
#246=ORIENTED_EDGE('',*,*,#559,.F.);
#247=ORIENTED_EDGE('',*,*,#560,.T.);
#248=ORIENTED_EDGE('',*,*,#561,.T.);
#249=ORIENTED_EDGE('',*,*,#501,.F.);
#250=ORIENTED_EDGE('',*,*,#562,.F.);
#251=ORIENTED_EDGE('',*,*,#563,.T.);
#252=ORIENTED_EDGE('',*,*,#559,.T.);
#253=ORIENTED_EDGE('',*,*,#500,.T.);
#254=ORIENTED_EDGE('',*,*,#564,.F.);
#255=ORIENTED_EDGE('',*,*,#565,.F.);
#256=ORIENTED_EDGE('',*,*,#562,.T.);
#257=ORIENTED_EDGE('',*,*,#499,.T.);
#258=ORIENTED_EDGE('',*,*,#561,.F.);
#259=ORIENTED_EDGE('',*,*,#566,.F.);
#260=ORIENTED_EDGE('',*,*,#564,.T.);
#261=ORIENTED_EDGE('',*,*,#560,.F.);
#262=ORIENTED_EDGE('',*,*,#563,.F.);
#263=ORIENTED_EDGE('',*,*,#565,.T.);
#264=ORIENTED_EDGE('',*,*,#566,.T.);
#265=ORIENTED_EDGE('',*,*,#567,.F.);
#266=ORIENTED_EDGE('',*,*,#568,.T.);
#267=ORIENTED_EDGE('',*,*,#569,.T.);
#268=ORIENTED_EDGE('',*,*,#570,.F.);
#269=ORIENTED_EDGE('',*,*,#473,.F.);
#270=ORIENTED_EDGE('',*,*,#571,.F.);
#271=ORIENTED_EDGE('',*,*,#572,.T.);
#272=ORIENTED_EDGE('',*,*,#573,.T.);
#273=ORIENTED_EDGE('',*,*,#476,.F.);
#274=ORIENTED_EDGE('',*,*,#574,.F.);
#275=ORIENTED_EDGE('',*,*,#575,.T.);
#276=ORIENTED_EDGE('',*,*,#571,.T.);
#277=ORIENTED_EDGE('',*,*,#475,.T.);
#278=ORIENTED_EDGE('',*,*,#576,.F.);
#279=ORIENTED_EDGE('',*,*,#577,.F.);
#280=ORIENTED_EDGE('',*,*,#574,.T.);
#281=ORIENTED_EDGE('',*,*,#474,.T.);
#282=ORIENTED_EDGE('',*,*,#573,.F.);
#283=ORIENTED_EDGE('',*,*,#578,.F.);
#284=ORIENTED_EDGE('',*,*,#576,.T.);
#285=ORIENTED_EDGE('',*,*,#572,.F.);
#286=ORIENTED_EDGE('',*,*,#575,.F.);
#287=ORIENTED_EDGE('',*,*,#577,.T.);
#288=ORIENTED_EDGE('',*,*,#578,.T.);
#289=ORIENTED_EDGE('',*,*,#579,.T.);
#290=ORIENTED_EDGE('',*,*,#580,.T.);
#291=ORIENTED_EDGE('',*,*,#581,.F.);
#292=ORIENTED_EDGE('',*,*,#582,.F.);
#293=ORIENTED_EDGE('',*,*,#502,.F.);
#294=ORIENTED_EDGE('',*,*,#583,.F.);
#295=ORIENTED_EDGE('',*,*,#584,.T.);
#296=ORIENTED_EDGE('',*,*,#585,.T.);
#297=ORIENTED_EDGE('',*,*,#505,.T.);
#298=ORIENTED_EDGE('',*,*,#586,.F.);
#299=ORIENTED_EDGE('',*,*,#587,.F.);
#300=ORIENTED_EDGE('',*,*,#583,.T.);
#301=ORIENTED_EDGE('',*,*,#504,.T.);
#302=ORIENTED_EDGE('',*,*,#588,.F.);
#303=ORIENTED_EDGE('',*,*,#589,.F.);
#304=ORIENTED_EDGE('',*,*,#586,.T.);
#305=ORIENTED_EDGE('',*,*,#503,.F.);
#306=ORIENTED_EDGE('',*,*,#585,.F.);
#307=ORIENTED_EDGE('',*,*,#590,.T.);
#308=ORIENTED_EDGE('',*,*,#588,.T.);
#309=ORIENTED_EDGE('',*,*,#584,.F.);
#310=ORIENTED_EDGE('',*,*,#587,.T.);
#311=ORIENTED_EDGE('',*,*,#589,.T.);
#312=ORIENTED_EDGE('',*,*,#590,.F.);
#313=ORIENTED_EDGE('',*,*,#591,.F.);
#314=ORIENTED_EDGE('',*,*,#592,.T.);
#315=ORIENTED_EDGE('',*,*,#593,.T.);
#316=ORIENTED_EDGE('',*,*,#594,.F.);
#317=ORIENTED_EDGE('',*,*,#595,.F.);
#318=ORIENTED_EDGE('',*,*,#596,.T.);
#319=ORIENTED_EDGE('',*,*,#597,.T.);
#320=ORIENTED_EDGE('',*,*,#598,.F.);
#321=ORIENTED_EDGE('',*,*,#599,.T.);
#322=ORIENTED_EDGE('',*,*,#558,.T.);
#323=ORIENTED_EDGE('',*,*,#600,.F.);
#324=ORIENTED_EDGE('',*,*,#597,.F.);
#325=ORIENTED_EDGE('',*,*,#600,.T.);
#326=ORIENTED_EDGE('',*,*,#557,.F.);
#327=ORIENTED_EDGE('',*,*,#601,.F.);
#328=ORIENTED_EDGE('',*,*,#598,.T.);
#329=ORIENTED_EDGE('',*,*,#601,.T.);
#330=ORIENTED_EDGE('',*,*,#556,.F.);
#331=ORIENTED_EDGE('',*,*,#602,.F.);
#332=ORIENTED_EDGE('',*,*,#595,.T.);
#333=ORIENTED_EDGE('',*,*,#602,.T.);
#334=ORIENTED_EDGE('',*,*,#555,.T.);
#335=ORIENTED_EDGE('',*,*,#599,.F.);
#336=ORIENTED_EDGE('',*,*,#596,.F.);
#337=ORIENTED_EDGE('',*,*,#603,.F.);
#338=ORIENTED_EDGE('',*,*,#604,.T.);
#339=ORIENTED_EDGE('',*,*,#605,.T.);
#340=ORIENTED_EDGE('',*,*,#606,.F.);
#341=ORIENTED_EDGE('',*,*,#607,.T.);
#342=ORIENTED_EDGE('',*,*,#570,.T.);
#343=ORIENTED_EDGE('',*,*,#608,.F.);
#344=ORIENTED_EDGE('',*,*,#605,.F.);
#345=ORIENTED_EDGE('',*,*,#608,.T.);
#346=ORIENTED_EDGE('',*,*,#569,.F.);
#347=ORIENTED_EDGE('',*,*,#609,.F.);
#348=ORIENTED_EDGE('',*,*,#606,.T.);
#349=ORIENTED_EDGE('',*,*,#609,.T.);
#350=ORIENTED_EDGE('',*,*,#568,.F.);
#351=ORIENTED_EDGE('',*,*,#610,.F.);
#352=ORIENTED_EDGE('',*,*,#603,.T.);
#353=ORIENTED_EDGE('',*,*,#610,.T.);
#354=ORIENTED_EDGE('',*,*,#567,.T.);
#355=ORIENTED_EDGE('',*,*,#607,.F.);
#356=ORIENTED_EDGE('',*,*,#604,.F.);
#357=ORIENTED_EDGE('',*,*,#611,.F.);
#358=ORIENTED_EDGE('',*,*,#612,.F.);
#359=ORIENTED_EDGE('',*,*,#613,.T.);
#360=ORIENTED_EDGE('',*,*,#614,.T.);
#361=ORIENTED_EDGE('',*,*,#615,.T.);
#362=ORIENTED_EDGE('',*,*,#582,.T.);
#363=ORIENTED_EDGE('',*,*,#616,.F.);
#364=ORIENTED_EDGE('',*,*,#613,.F.);
#365=ORIENTED_EDGE('',*,*,#616,.T.);
#366=ORIENTED_EDGE('',*,*,#581,.T.);
#367=ORIENTED_EDGE('',*,*,#617,.F.);
#368=ORIENTED_EDGE('',*,*,#614,.F.);
#369=ORIENTED_EDGE('',*,*,#617,.T.);
#370=ORIENTED_EDGE('',*,*,#580,.F.);
#371=ORIENTED_EDGE('',*,*,#618,.F.);
#372=ORIENTED_EDGE('',*,*,#611,.T.);
#373=ORIENTED_EDGE('',*,*,#618,.T.);
#374=ORIENTED_EDGE('',*,*,#579,.F.);
#375=ORIENTED_EDGE('',*,*,#615,.F.);
#376=ORIENTED_EDGE('',*,*,#612,.T.);
#377=ORIENTED_EDGE('',*,*,#619,.F.);
#378=ORIENTED_EDGE('',*,*,#620,.T.);
#379=ORIENTED_EDGE('',*,*,#621,.T.);
#380=ORIENTED_EDGE('',*,*,#622,.F.);
#381=ORIENTED_EDGE('',*,*,#623,.T.);
#382=ORIENTED_EDGE('',*,*,#594,.T.);
#383=ORIENTED_EDGE('',*,*,#624,.F.);
#384=ORIENTED_EDGE('',*,*,#621,.F.);
#385=ORIENTED_EDGE('',*,*,#624,.T.);
#386=ORIENTED_EDGE('',*,*,#593,.F.);
#387=ORIENTED_EDGE('',*,*,#625,.F.);
#388=ORIENTED_EDGE('',*,*,#622,.T.);
#389=ORIENTED_EDGE('',*,*,#625,.T.);
#390=ORIENTED_EDGE('',*,*,#592,.F.);
#391=ORIENTED_EDGE('',*,*,#626,.F.);
#392=ORIENTED_EDGE('',*,*,#619,.T.);
#393=ORIENTED_EDGE('',*,*,#626,.T.);
#394=ORIENTED_EDGE('',*,*,#591,.T.);
#395=ORIENTED_EDGE('',*,*,#623,.F.);
#396=ORIENTED_EDGE('',*,*,#620,.F.);
#397=ORIENTED_EDGE('',*,*,#471,.F.);
#398=ORIENTED_EDGE('',*,*,#627,.T.);
#399=ORIENTED_EDGE('',*,*,#457,.T.);
#400=ORIENTED_EDGE('',*,*,#628,.T.);
#401=ORIENTED_EDGE('',*,*,#463,.F.);
#402=ORIENTED_EDGE('',*,*,#629,.T.);
#403=ORIENTED_EDGE('',*,*,#465,.T.);
#404=ORIENTED_EDGE('',*,*,#630,.F.);
#405=ORIENTED_EDGE('',*,*,#630,.T.);
#406=ORIENTED_EDGE('',*,*,#472,.T.);
#407=ORIENTED_EDGE('',*,*,#628,.F.);
#408=ORIENTED_EDGE('',*,*,#464,.F.);
#409=ORIENTED_EDGE('',*,*,#627,.F.);
#410=ORIENTED_EDGE('',*,*,#470,.F.);
#411=ORIENTED_EDGE('',*,*,#631,.F.);
#412=ORIENTED_EDGE('',*,*,#458,.F.);
#413=ORIENTED_EDGE('',*,*,#481,.F.);
#414=ORIENTED_EDGE('',*,*,#459,.F.);
#415=ORIENTED_EDGE('',*,*,#632,.F.);
#416=ORIENTED_EDGE('',*,*,#506,.F.);
#417=ORIENTED_EDGE('',*,*,#632,.T.);
#418=ORIENTED_EDGE('',*,*,#631,.T.);
#419=ORIENTED_EDGE('',*,*,#633,.F.);
#420=ORIENTED_EDGE('',*,*,#633,.T.);
#421=ORIENTED_EDGE('',*,*,#469,.F.);
#422=ORIENTED_EDGE('',*,*,#634,.F.);
#423=ORIENTED_EDGE('',*,*,#507,.F.);
#424=ORIENTED_EDGE('',*,*,#546,.F.);
#425=ORIENTED_EDGE('',*,*,#508,.F.);
#426=ORIENTED_EDGE('',*,*,#635,.F.);
#427=ORIENTED_EDGE('',*,*,#523,.F.);
#428=ORIENTED_EDGE('',*,*,#635,.T.);
#429=ORIENTED_EDGE('',*,*,#634,.T.);
#430=ORIENTED_EDGE('',*,*,#636,.F.);
#431=ORIENTED_EDGE('',*,*,#636,.T.);
#432=ORIENTED_EDGE('',*,*,#468,.F.);
#433=ORIENTED_EDGE('',*,*,#637,.F.);
#434=ORIENTED_EDGE('',*,*,#524,.F.);
#435=ORIENTED_EDGE('',*,*,#532,.F.);
#436=ORIENTED_EDGE('',*,*,#525,.F.);
#437=ORIENTED_EDGE('',*,*,#638,.F.);
#438=ORIENTED_EDGE('',*,*,#521,.F.);
#439=ORIENTED_EDGE('',*,*,#638,.T.);
#440=ORIENTED_EDGE('',*,*,#637,.T.);
#441=ORIENTED_EDGE('',*,*,#639,.F.);
#442=ORIENTED_EDGE('',*,*,#639,.T.);
#443=ORIENTED_EDGE('',*,*,#467,.F.);
#444=ORIENTED_EDGE('',*,*,#640,.F.);
#445=ORIENTED_EDGE('',*,*,#514,.F.);
#446=ORIENTED_EDGE('',*,*,#497,.F.);
#447=ORIENTED_EDGE('',*,*,#515,.F.);
#448=ORIENTED_EDGE('',*,*,#641,.F.);
#449=ORIENTED_EDGE('',*,*,#461,.F.);
#450=ORIENTED_EDGE('',*,*,#641,.T.);
#451=ORIENTED_EDGE('',*,*,#640,.T.);
#452=ORIENTED_EDGE('',*,*,#642,.F.);
#453=ORIENTED_EDGE('',*,*,#629,.F.);
#454=ORIENTED_EDGE('',*,*,#462,.F.);
#455=ORIENTED_EDGE('',*,*,#642,.T.);
#456=ORIENTED_EDGE('',*,*,#466,.F.);
#457=EDGE_CURVE('',#643,#644,#763,.T.);
#458=EDGE_CURVE('',#643,#645,#764,.F.);
#459=EDGE_CURVE('',#645,#646,#765,.T.);
#460=EDGE_CURVE('',#646,#647,#766,.T.);
#461=EDGE_CURVE('',#647,#648,#767,.F.);
#462=EDGE_CURVE('',#648,#649,#768,.F.);
#463=EDGE_CURVE('',#649,#650,#769,.T.);
#464=EDGE_CURVE('',#650,#644,#770,.T.);
#465=EDGE_CURVE('',#651,#652,#771,.T.);
#466=EDGE_CURVE('',#651,#653,#772,.T.);
#467=EDGE_CURVE('',#653,#654,#773,.T.);
#468=EDGE_CURVE('',#654,#655,#774,.F.);
#469=EDGE_CURVE('',#655,#656,#775,.F.);
#470=EDGE_CURVE('',#656,#657,#776,.T.);
#471=EDGE_CURVE('',#657,#658,#777,.T.);
#472=EDGE_CURVE('',#652,#658,#778,.T.);
#473=EDGE_CURVE('',#659,#660,#779,.T.);
#474=EDGE_CURVE('',#661,#660,#780,.T.);
#475=EDGE_CURVE('',#662,#661,#781,.T.);
#476=EDGE_CURVE('',#662,#659,#782,.T.);
#477=EDGE_CURVE('',#663,#664,#783,.T.);
#478=EDGE_CURVE('',#664,#665,#784,.T.);
#479=EDGE_CURVE('',#666,#665,#785,.T.);
#480=EDGE_CURVE('',#663,#666,#786,.T.);
#481=EDGE_CURVE('',#646,#667,#67,.F.);
#482=EDGE_CURVE('',#667,#668,#787,.T.);
#483=EDGE_CURVE('',#668,#669,#788,.T.);
#484=EDGE_CURVE('',#670,#669,#789,.T.);
#485=EDGE_CURVE('',#671,#670,#790,.T.);
#486=EDGE_CURVE('',#671,#672,#791,.T.);
#487=EDGE_CURVE('',#672,#673,#792,.T.);
#488=EDGE_CURVE('',#674,#673,#793,.T.);
#489=EDGE_CURVE('',#674,#675,#794,.T.);
#490=EDGE_CURVE('',#675,#676,#795,.T.);
#491=EDGE_CURVE('',#677,#676,#796,.T.);
#492=EDGE_CURVE('',#678,#677,#797,.T.);
#493=EDGE_CURVE('',#678,#679,#798,.T.);
#494=EDGE_CURVE('',#679,#680,#799,.T.);
#495=EDGE_CURVE('',#681,#680,#800,.T.);
#496=EDGE_CURVE('',#682,#681,#801,.T.);
#497=EDGE_CURVE('',#682,#647,#68,.F.);
#498=EDGE_CURVE('',#683,#684,#802,.T.);
#499=EDGE_CURVE('',#685,#684,#803,.T.);
#500=EDGE_CURVE('',#686,#685,#804,.T.);
#501=EDGE_CURVE('',#686,#683,#805,.T.);
#502=EDGE_CURVE('',#687,#688,#806,.T.);
#503=EDGE_CURVE('',#688,#689,#807,.T.);
#504=EDGE_CURVE('',#690,#689,#808,.T.);
#505=EDGE_CURVE('',#687,#690,#809,.T.);
#506=EDGE_CURVE('',#667,#691,#810,.F.);
#507=EDGE_CURVE('',#691,#692,#811,.T.);
#508=EDGE_CURVE('',#692,#693,#812,.T.);
#509=EDGE_CURVE('',#694,#693,#813,.T.);
#510=EDGE_CURVE('',#694,#672,#814,.T.);
#511=EDGE_CURVE('',#695,#671,#815,.T.);
#512=EDGE_CURVE('',#696,#695,#816,.T.);
#513=EDGE_CURVE('',#696,#668,#817,.T.);
#514=EDGE_CURVE('',#697,#698,#818,.F.);
#515=EDGE_CURVE('',#698,#682,#819,.T.);
#516=EDGE_CURVE('',#699,#681,#820,.T.);
#517=EDGE_CURVE('',#699,#700,#821,.T.);
#518=EDGE_CURVE('',#700,#678,#822,.T.);
#519=EDGE_CURVE('',#701,#677,#823,.T.);
#520=EDGE_CURVE('',#701,#702,#824,.T.);
#521=EDGE_CURVE('',#702,#697,#825,.F.);
#522=EDGE_CURVE('',#703,#704,#826,.T.);
#523=EDGE_CURVE('',#703,#705,#827,.F.);
#524=EDGE_CURVE('',#705,#706,#828,.T.);
#525=EDGE_CURVE('',#706,#707,#829,.T.);
#526=EDGE_CURVE('',#708,#707,#830,.T.);
#527=EDGE_CURVE('',#708,#675,#831,.T.);
#528=EDGE_CURVE('',#704,#674,#832,.T.);
#529=EDGE_CURVE('',#709,#676,#833,.T.);
#530=EDGE_CURVE('',#701,#709,#834,.T.);
#531=EDGE_CURVE('',#708,#709,#835,.T.);
#532=EDGE_CURVE('',#707,#702,#69,.T.);
#533=EDGE_CURVE('',#710,#670,#836,.T.);
#534=EDGE_CURVE('',#695,#710,#837,.T.);
#535=EDGE_CURVE('',#711,#669,#838,.T.);
#536=EDGE_CURVE('',#710,#711,#839,.T.);
#537=EDGE_CURVE('',#696,#711,#840,.T.);
#538=EDGE_CURVE('',#700,#712,#841,.T.);
#539=EDGE_CURVE('',#712,#679,#842,.T.);
#540=EDGE_CURVE('',#713,#680,#843,.T.);
#541=EDGE_CURVE('',#699,#713,#844,.T.);
#542=EDGE_CURVE('',#712,#713,#845,.T.);
#543=EDGE_CURVE('',#694,#714,#846,.T.);
#544=EDGE_CURVE('',#714,#673,#847,.T.);
#545=EDGE_CURVE('',#704,#714,#848,.T.);
#546=EDGE_CURVE('',#693,#703,#70,.T.);
#547=EDGE_CURVE('',#715,#663,#849,.T.);
#548=EDGE_CURVE('',#715,#716,#850,.T.);
#549=EDGE_CURVE('',#716,#664,#851,.T.);
#550=EDGE_CURVE('',#717,#666,#852,.T.);
#551=EDGE_CURVE('',#715,#717,#853,.T.);
#552=EDGE_CURVE('',#718,#665,#854,.T.);
#553=EDGE_CURVE('',#717,#718,#855,.T.);
#554=EDGE_CURVE('',#716,#718,#856,.T.);
#555=EDGE_CURVE('',#719,#720,#857,.T.);
#556=EDGE_CURVE('',#719,#721,#858,.T.);
#557=EDGE_CURVE('',#721,#722,#859,.T.);
#558=EDGE_CURVE('',#720,#722,#860,.T.);
#559=EDGE_CURVE('',#723,#683,#861,.T.);
#560=EDGE_CURVE('',#723,#724,#862,.T.);
#561=EDGE_CURVE('',#724,#684,#863,.T.);
#562=EDGE_CURVE('',#725,#686,#864,.T.);
#563=EDGE_CURVE('',#725,#723,#865,.T.);
#564=EDGE_CURVE('',#726,#685,#866,.T.);
#565=EDGE_CURVE('',#725,#726,#867,.T.);
#566=EDGE_CURVE('',#726,#724,#868,.T.);
#567=EDGE_CURVE('',#727,#728,#869,.T.);
#568=EDGE_CURVE('',#727,#729,#870,.T.);
#569=EDGE_CURVE('',#729,#730,#871,.T.);
#570=EDGE_CURVE('',#728,#730,#872,.T.);
#571=EDGE_CURVE('',#731,#659,#873,.T.);
#572=EDGE_CURVE('',#731,#732,#874,.T.);
#573=EDGE_CURVE('',#732,#660,#875,.T.);
#574=EDGE_CURVE('',#733,#662,#876,.T.);
#575=EDGE_CURVE('',#733,#731,#877,.T.);
#576=EDGE_CURVE('',#734,#661,#878,.T.);
#577=EDGE_CURVE('',#733,#734,#879,.T.);
#578=EDGE_CURVE('',#734,#732,#880,.T.);
#579=EDGE_CURVE('',#735,#736,#881,.T.);
#580=EDGE_CURVE('',#736,#737,#882,.T.);
#581=EDGE_CURVE('',#738,#737,#883,.T.);
#582=EDGE_CURVE('',#735,#738,#884,.T.);
#583=EDGE_CURVE('',#739,#687,#885,.T.);
#584=EDGE_CURVE('',#739,#740,#886,.T.);
#585=EDGE_CURVE('',#740,#688,#887,.T.);
#586=EDGE_CURVE('',#741,#690,#888,.T.);
#587=EDGE_CURVE('',#739,#741,#889,.T.);
#588=EDGE_CURVE('',#742,#689,#890,.T.);
#589=EDGE_CURVE('',#741,#742,#891,.T.);
#590=EDGE_CURVE('',#740,#742,#892,.T.);
#591=EDGE_CURVE('',#743,#744,#893,.T.);
#592=EDGE_CURVE('',#743,#745,#894,.T.);
#593=EDGE_CURVE('',#745,#746,#895,.T.);
#594=EDGE_CURVE('',#744,#746,#896,.T.);
#595=EDGE_CURVE('',#747,#748,#897,.T.);
#596=EDGE_CURVE('',#747,#749,#898,.T.);
#597=EDGE_CURVE('',#749,#750,#899,.T.);
#598=EDGE_CURVE('',#748,#750,#900,.T.);
#599=EDGE_CURVE('',#749,#720,#901,.T.);
#600=EDGE_CURVE('',#750,#722,#902,.T.);
#601=EDGE_CURVE('',#748,#721,#903,.T.);
#602=EDGE_CURVE('',#747,#719,#904,.T.);
#603=EDGE_CURVE('',#751,#752,#905,.T.);
#604=EDGE_CURVE('',#751,#753,#906,.T.);
#605=EDGE_CURVE('',#753,#754,#907,.T.);
#606=EDGE_CURVE('',#752,#754,#908,.T.);
#607=EDGE_CURVE('',#753,#728,#909,.T.);
#608=EDGE_CURVE('',#754,#730,#910,.T.);
#609=EDGE_CURVE('',#752,#729,#911,.T.);
#610=EDGE_CURVE('',#751,#727,#912,.T.);
#611=EDGE_CURVE('',#755,#756,#913,.T.);
#612=EDGE_CURVE('',#757,#755,#914,.T.);
#613=EDGE_CURVE('',#757,#758,#915,.T.);
#614=EDGE_CURVE('',#758,#756,#916,.T.);
#615=EDGE_CURVE('',#757,#735,#917,.T.);
#616=EDGE_CURVE('',#758,#738,#918,.T.);
#617=EDGE_CURVE('',#756,#737,#919,.T.);
#618=EDGE_CURVE('',#755,#736,#920,.T.);
#619=EDGE_CURVE('',#759,#760,#921,.T.);
#620=EDGE_CURVE('',#759,#761,#922,.T.);
#621=EDGE_CURVE('',#761,#762,#923,.T.);
#622=EDGE_CURVE('',#760,#762,#924,.T.);
#623=EDGE_CURVE('',#761,#744,#925,.T.);
#624=EDGE_CURVE('',#762,#746,#926,.T.);
#625=EDGE_CURVE('',#760,#745,#927,.T.);
#626=EDGE_CURVE('',#759,#743,#928,.T.);
#627=EDGE_CURVE('',#657,#643,#71,.T.);
#628=EDGE_CURVE('',#644,#658,#929,.T.);
#629=EDGE_CURVE('',#649,#651,#72,.F.);
#630=EDGE_CURVE('',#650,#652,#930,.T.);
#631=EDGE_CURVE('',#645,#656,#73,.T.);
#632=EDGE_CURVE('',#691,#645,#74,.T.);
#633=EDGE_CURVE('',#691,#656,#75,.F.);
#634=EDGE_CURVE('',#692,#655,#76,.T.);
#635=EDGE_CURVE('',#705,#692,#77,.T.);
#636=EDGE_CURVE('',#705,#655,#78,.F.);
#637=EDGE_CURVE('',#706,#654,#79,.T.);
#638=EDGE_CURVE('',#697,#706,#80,.T.);
#639=EDGE_CURVE('',#697,#654,#81,.F.);
#640=EDGE_CURVE('',#698,#653,#82,.T.);
#641=EDGE_CURVE('',#648,#698,#83,.T.);
#642=EDGE_CURVE('',#648,#653,#84,.F.);
#643=VERTEX_POINT('',#2115);
#644=VERTEX_POINT('',#2116);
#645=VERTEX_POINT('',#2118);
#646=VERTEX_POINT('',#2120);
#647=VERTEX_POINT('',#2122);
#648=VERTEX_POINT('',#2124);
#649=VERTEX_POINT('',#2126);
#650=VERTEX_POINT('',#2128);
#651=VERTEX_POINT('',#2132);
#652=VERTEX_POINT('',#2133);
#653=VERTEX_POINT('',#2135);
#654=VERTEX_POINT('',#2137);
#655=VERTEX_POINT('',#2139);
#656=VERTEX_POINT('',#2141);
#657=VERTEX_POINT('',#2143);
#658=VERTEX_POINT('',#2145);
#659=VERTEX_POINT('',#2149);
#660=VERTEX_POINT('',#2150);
#661=VERTEX_POINT('',#2152);
#662=VERTEX_POINT('',#2154);
#663=VERTEX_POINT('',#2157);
#664=VERTEX_POINT('',#2158);
#665=VERTEX_POINT('',#2160);
#666=VERTEX_POINT('',#2162);
#667=VERTEX_POINT('',#2165);
#668=VERTEX_POINT('',#2167);
#669=VERTEX_POINT('',#2169);
#670=VERTEX_POINT('',#2171);
#671=VERTEX_POINT('',#2173);
#672=VERTEX_POINT('',#2175);
#673=VERTEX_POINT('',#2177);
#674=VERTEX_POINT('',#2179);
#675=VERTEX_POINT('',#2181);
#676=VERTEX_POINT('',#2183);
#677=VERTEX_POINT('',#2185);
#678=VERTEX_POINT('',#2187);
#679=VERTEX_POINT('',#2189);
#680=VERTEX_POINT('',#2191);
#681=VERTEX_POINT('',#2193);
#682=VERTEX_POINT('',#2195);
#683=VERTEX_POINT('',#2198);
#684=VERTEX_POINT('',#2199);
#685=VERTEX_POINT('',#2201);
#686=VERTEX_POINT('',#2203);
#687=VERTEX_POINT('',#2206);
#688=VERTEX_POINT('',#2207);
#689=VERTEX_POINT('',#2209);
#690=VERTEX_POINT('',#2211);
#691=VERTEX_POINT('',#2215);
#692=VERTEX_POINT('',#2217);
#693=VERTEX_POINT('',#2219);
#694=VERTEX_POINT('',#2221);
#695=VERTEX_POINT('',#2224);
#696=VERTEX_POINT('',#2226);
#697=VERTEX_POINT('',#2230);
#698=VERTEX_POINT('',#2231);
#699=VERTEX_POINT('',#2234);
#700=VERTEX_POINT('',#2236);
#701=VERTEX_POINT('',#2239);
#702=VERTEX_POINT('',#2241);
#703=VERTEX_POINT('',#2245);
#704=VERTEX_POINT('',#2246);
#705=VERTEX_POINT('',#2248);
#706=VERTEX_POINT('',#2250);
#707=VERTEX_POINT('',#2252);
#708=VERTEX_POINT('',#2254);
#709=VERTEX_POINT('',#2259);
#710=VERTEX_POINT('',#2267);
#711=VERTEX_POINT('',#2271);
#712=VERTEX_POINT('',#2278);
#713=VERTEX_POINT('',#2282);
#714=VERTEX_POINT('',#2289);
#715=VERTEX_POINT('',#2297);
#716=VERTEX_POINT('',#2299);
#717=VERTEX_POINT('',#2303);
#718=VERTEX_POINT('',#2307);
#719=VERTEX_POINT('',#2313);
#720=VERTEX_POINT('',#2314);
#721=VERTEX_POINT('',#2316);
#722=VERTEX_POINT('',#2318);
#723=VERTEX_POINT('',#2322);
#724=VERTEX_POINT('',#2324);
#725=VERTEX_POINT('',#2328);
#726=VERTEX_POINT('',#2332);
#727=VERTEX_POINT('',#2338);
#728=VERTEX_POINT('',#2339);
#729=VERTEX_POINT('',#2341);
#730=VERTEX_POINT('',#2343);
#731=VERTEX_POINT('',#2347);
#732=VERTEX_POINT('',#2349);
#733=VERTEX_POINT('',#2353);
#734=VERTEX_POINT('',#2357);
#735=VERTEX_POINT('',#2363);
#736=VERTEX_POINT('',#2364);
#737=VERTEX_POINT('',#2366);
#738=VERTEX_POINT('',#2368);
#739=VERTEX_POINT('',#2372);
#740=VERTEX_POINT('',#2374);
#741=VERTEX_POINT('',#2378);
#742=VERTEX_POINT('',#2382);
#743=VERTEX_POINT('',#2388);
#744=VERTEX_POINT('',#2389);
#745=VERTEX_POINT('',#2391);
#746=VERTEX_POINT('',#2393);
#747=VERTEX_POINT('',#2397);
#748=VERTEX_POINT('',#2398);
#749=VERTEX_POINT('',#2400);
#750=VERTEX_POINT('',#2402);
#751=VERTEX_POINT('',#2414);
#752=VERTEX_POINT('',#2415);
#753=VERTEX_POINT('',#2417);
#754=VERTEX_POINT('',#2419);
#755=VERTEX_POINT('',#2431);
#756=VERTEX_POINT('',#2432);
#757=VERTEX_POINT('',#2434);
#758=VERTEX_POINT('',#2436);
#759=VERTEX_POINT('',#2448);
#760=VERTEX_POINT('',#2449);
#761=VERTEX_POINT('',#2451);
#762=VERTEX_POINT('',#2453);
#763=LINE('',#2114,#931);
#764=LINE('',#2117,#932);
#765=LINE('',#2119,#933);
#766=LINE('',#2121,#934);
#767=LINE('',#2123,#935);
#768=LINE('',#2125,#936);
#769=LINE('',#2127,#937);
#770=LINE('',#2129,#938);
#771=LINE('',#2131,#939);
#772=LINE('',#2134,#940);
#773=LINE('',#2136,#941);
#774=LINE('',#2138,#942);
#775=LINE('',#2140,#943);
#776=LINE('',#2142,#944);
#777=LINE('',#2144,#945);
#778=LINE('',#2146,#946);
#779=LINE('',#2148,#947);
#780=LINE('',#2151,#948);
#781=LINE('',#2153,#949);
#782=LINE('',#2155,#950);
#783=LINE('',#2156,#951);
#784=LINE('',#2159,#952);
#785=LINE('',#2161,#953);
#786=LINE('',#2163,#954);
#787=LINE('',#2166,#955);
#788=LINE('',#2168,#956);
#789=LINE('',#2170,#957);
#790=LINE('',#2172,#958);
#791=LINE('',#2174,#959);
#792=LINE('',#2176,#960);
#793=LINE('',#2178,#961);
#794=LINE('',#2180,#962);
#795=LINE('',#2182,#963);
#796=LINE('',#2184,#964);
#797=LINE('',#2186,#965);
#798=LINE('',#2188,#966);
#799=LINE('',#2190,#967);
#800=LINE('',#2192,#968);
#801=LINE('',#2194,#969);
#802=LINE('',#2197,#970);
#803=LINE('',#2200,#971);
#804=LINE('',#2202,#972);
#805=LINE('',#2204,#973);
#806=LINE('',#2205,#974);
#807=LINE('',#2208,#975);
#808=LINE('',#2210,#976);
#809=LINE('',#2212,#977);
#810=LINE('',#2214,#978);
#811=LINE('',#2216,#979);
#812=LINE('',#2218,#980);
#813=LINE('',#2220,#981);
#814=LINE('',#2222,#982);
#815=LINE('',#2223,#983);
#816=LINE('',#2225,#984);
#817=LINE('',#2227,#985);
#818=LINE('',#2229,#986);
#819=LINE('',#2232,#987);
#820=LINE('',#2233,#988);
#821=LINE('',#2235,#989);
#822=LINE('',#2237,#990);
#823=LINE('',#2238,#991);
#824=LINE('',#2240,#992);
#825=LINE('',#2242,#993);
#826=LINE('',#2244,#994);
#827=LINE('',#2247,#995);
#828=LINE('',#2249,#996);
#829=LINE('',#2251,#997);
#830=LINE('',#2253,#998);
#831=LINE('',#2255,#999);
#832=LINE('',#2256,#1000);
#833=LINE('',#2258,#1001);
#834=LINE('',#2260,#1002);
#835=LINE('',#2262,#1003);
#836=LINE('',#2266,#1004);
#837=LINE('',#2268,#1005);
#838=LINE('',#2270,#1006);
#839=LINE('',#2272,#1007);
#840=LINE('',#2274,#1008);
#841=LINE('',#2277,#1009);
#842=LINE('',#2279,#1010);
#843=LINE('',#2281,#1011);
#844=LINE('',#2283,#1012);
#845=LINE('',#2285,#1013);
#846=LINE('',#2288,#1014);
#847=LINE('',#2290,#1015);
#848=LINE('',#2292,#1016);
#849=LINE('',#2296,#1017);
#850=LINE('',#2298,#1018);
#851=LINE('',#2300,#1019);
#852=LINE('',#2302,#1020);
#853=LINE('',#2304,#1021);
#854=LINE('',#2306,#1022);
#855=LINE('',#2308,#1023);
#856=LINE('',#2310,#1024);
#857=LINE('',#2312,#1025);
#858=LINE('',#2315,#1026);
#859=LINE('',#2317,#1027);
#860=LINE('',#2319,#1028);
#861=LINE('',#2321,#1029);
#862=LINE('',#2323,#1030);
#863=LINE('',#2325,#1031);
#864=LINE('',#2327,#1032);
#865=LINE('',#2329,#1033);
#866=LINE('',#2331,#1034);
#867=LINE('',#2333,#1035);
#868=LINE('',#2335,#1036);
#869=LINE('',#2337,#1037);
#870=LINE('',#2340,#1038);
#871=LINE('',#2342,#1039);
#872=LINE('',#2344,#1040);
#873=LINE('',#2346,#1041);
#874=LINE('',#2348,#1042);
#875=LINE('',#2350,#1043);
#876=LINE('',#2352,#1044);
#877=LINE('',#2354,#1045);
#878=LINE('',#2356,#1046);
#879=LINE('',#2358,#1047);
#880=LINE('',#2360,#1048);
#881=LINE('',#2362,#1049);
#882=LINE('',#2365,#1050);
#883=LINE('',#2367,#1051);
#884=LINE('',#2369,#1052);
#885=LINE('',#2371,#1053);
#886=LINE('',#2373,#1054);
#887=LINE('',#2375,#1055);
#888=LINE('',#2377,#1056);
#889=LINE('',#2379,#1057);
#890=LINE('',#2381,#1058);
#891=LINE('',#2383,#1059);
#892=LINE('',#2385,#1060);
#893=LINE('',#2387,#1061);
#894=LINE('',#2390,#1062);
#895=LINE('',#2392,#1063);
#896=LINE('',#2394,#1064);
#897=LINE('',#2396,#1065);
#898=LINE('',#2399,#1066);
#899=LINE('',#2401,#1067);
#900=LINE('',#2403,#1068);
#901=LINE('',#2405,#1069);
#902=LINE('',#2406,#1070);
#903=LINE('',#2408,#1071);
#904=LINE('',#2410,#1072);
#905=LINE('',#2413,#1073);
#906=LINE('',#2416,#1074);
#907=LINE('',#2418,#1075);
#908=LINE('',#2420,#1076);
#909=LINE('',#2422,#1077);
#910=LINE('',#2423,#1078);
#911=LINE('',#2425,#1079);
#912=LINE('',#2427,#1080);
#913=LINE('',#2430,#1081);
#914=LINE('',#2433,#1082);
#915=LINE('',#2435,#1083);
#916=LINE('',#2437,#1084);
#917=LINE('',#2439,#1085);
#918=LINE('',#2440,#1086);
#919=LINE('',#2442,#1087);
#920=LINE('',#2444,#1088);
#921=LINE('',#2447,#1089);
#922=LINE('',#2450,#1090);
#923=LINE('',#2452,#1091);
#924=LINE('',#2454,#1092);
#925=LINE('',#2456,#1093);
#926=LINE('',#2457,#1094);
#927=LINE('',#2459,#1095);
#928=LINE('',#2461,#1096);
#929=LINE('',#2465,#1097);
#930=LINE('',#2468,#1098);
#931=VECTOR('',#1758,1.);
#932=VECTOR('',#1759,1.);
#933=VECTOR('',#1760,1.);
#934=VECTOR('',#1761,1.);
#935=VECTOR('',#1762,1.);
#936=VECTOR('',#1763,1.);
#937=VECTOR('',#1764,1.);
#938=VECTOR('',#1765,1.);
#939=VECTOR('',#1768,1.);
#940=VECTOR('',#1769,1.);
#941=VECTOR('',#1770,1.);
#942=VECTOR('',#1771,1.);
#943=VECTOR('',#1772,1.);
#944=VECTOR('',#1773,1.);
#945=VECTOR('',#1774,1.);
#946=VECTOR('',#1775,1.);
#947=VECTOR('',#1778,1.);
#948=VECTOR('',#1779,1.);
#949=VECTOR('',#1780,1.);
#950=VECTOR('',#1781,1.);
#951=VECTOR('',#1782,1.);
#952=VECTOR('',#1783,1.);
#953=VECTOR('',#1784,1.);
#954=VECTOR('',#1785,1.);
#955=VECTOR('',#1788,1.);
#956=VECTOR('',#1789,1.);
#957=VECTOR('',#1790,1.);
#958=VECTOR('',#1791,1.);
#959=VECTOR('',#1792,1.);
#960=VECTOR('',#1793,1.);
#961=VECTOR('',#1794,1.);
#962=VECTOR('',#1795,1.);
#963=VECTOR('',#1796,1.);
#964=VECTOR('',#1797,1.);
#965=VECTOR('',#1798,1.);
#966=VECTOR('',#1799,1.);
#967=VECTOR('',#1800,1.);
#968=VECTOR('',#1801,1.);
#969=VECTOR('',#1802,1.);
#970=VECTOR('',#1805,1.);
#971=VECTOR('',#1806,1.);
#972=VECTOR('',#1807,1.);
#973=VECTOR('',#1808,1.);
#974=VECTOR('',#1809,1.);
#975=VECTOR('',#1810,1.);
#976=VECTOR('',#1811,1.);
#977=VECTOR('',#1812,1.);
#978=VECTOR('',#1815,1.);
#979=VECTOR('',#1816,1.);
#980=VECTOR('',#1817,1.);
#981=VECTOR('',#1818,1.);
#982=VECTOR('',#1819,1.);
#983=VECTOR('',#1820,1.);
#984=VECTOR('',#1821,1.);
#985=VECTOR('',#1822,1.);
#986=VECTOR('',#1825,1.);
#987=VECTOR('',#1826,1.);
#988=VECTOR('',#1827,1.);
#989=VECTOR('',#1828,1.);
#990=VECTOR('',#1829,1.);
#991=VECTOR('',#1830,1.);
#992=VECTOR('',#1831,1.);
#993=VECTOR('',#1832,1.);
#994=VECTOR('',#1835,1.);
#995=VECTOR('',#1836,1.);
#996=VECTOR('',#1837,1.);
#997=VECTOR('',#1838,1.);
#998=VECTOR('',#1839,1.);
#999=VECTOR('',#1840,1.);
#1000=VECTOR('',#1841,1.);
#1001=VECTOR('',#1844,1.);
#1002=VECTOR('',#1845,1.);
#1003=VECTOR('',#1848,1.);
#1004=VECTOR('',#1855,1.);
#1005=VECTOR('',#1856,1.);
#1006=VECTOR('',#1859,1.);
#1007=VECTOR('',#1860,1.);
#1008=VECTOR('',#1863,1.);
#1009=VECTOR('',#1868,1.);
#1010=VECTOR('',#1869,1.);
#1011=VECTOR('',#1872,1.);
#1012=VECTOR('',#1873,1.);
#1013=VECTOR('',#1876,1.);
#1014=VECTOR('',#1881,1.);
#1015=VECTOR('',#1882,1.);
#1016=VECTOR('',#1885,1.);
#1017=VECTOR('',#1892,1.);
#1018=VECTOR('',#1893,1.);
#1019=VECTOR('',#1894,1.);
#1020=VECTOR('',#1897,1.);
#1021=VECTOR('',#1898,1.);
#1022=VECTOR('',#1901,1.);
#1023=VECTOR('',#1902,1.);
#1024=VECTOR('',#1905,1.);
#1025=VECTOR('',#1908,1.);
#1026=VECTOR('',#1909,1.);
#1027=VECTOR('',#1910,1.);
#1028=VECTOR('',#1911,1.);
#1029=VECTOR('',#1914,1.);
#1030=VECTOR('',#1915,1.);
#1031=VECTOR('',#1916,1.);
#1032=VECTOR('',#1919,1.);
#1033=VECTOR('',#1920,1.);
#1034=VECTOR('',#1923,1.);
#1035=VECTOR('',#1924,1.);
#1036=VECTOR('',#1927,1.);
#1037=VECTOR('',#1930,1.);
#1038=VECTOR('',#1931,1.);
#1039=VECTOR('',#1932,1.);
#1040=VECTOR('',#1933,1.);
#1041=VECTOR('',#1936,1.);
#1042=VECTOR('',#1937,1.);
#1043=VECTOR('',#1938,1.);
#1044=VECTOR('',#1941,1.);
#1045=VECTOR('',#1942,1.);
#1046=VECTOR('',#1945,1.);
#1047=VECTOR('',#1946,1.);
#1048=VECTOR('',#1949,1.);
#1049=VECTOR('',#1952,1.);
#1050=VECTOR('',#1953,1.);
#1051=VECTOR('',#1954,1.);
#1052=VECTOR('',#1955,1.);
#1053=VECTOR('',#1958,1.);
#1054=VECTOR('',#1959,1.);
#1055=VECTOR('',#1960,1.);
#1056=VECTOR('',#1963,1.);
#1057=VECTOR('',#1964,1.);
#1058=VECTOR('',#1967,1.);
#1059=VECTOR('',#1968,1.);
#1060=VECTOR('',#1971,1.);
#1061=VECTOR('',#1974,1.);
#1062=VECTOR('',#1975,1.);
#1063=VECTOR('',#1976,1.);
#1064=VECTOR('',#1977,1.);
#1065=VECTOR('',#1980,1.);
#1066=VECTOR('',#1981,1.);
#1067=VECTOR('',#1982,1.);
#1068=VECTOR('',#1983,1.);
#1069=VECTOR('',#1986,1.);
#1070=VECTOR('',#1987,1.);
#1071=VECTOR('',#1990,1.);
#1072=VECTOR('',#1993,1.);
#1073=VECTOR('',#1998,1.);
#1074=VECTOR('',#1999,1.);
#1075=VECTOR('',#2000,1.);
#1076=VECTOR('',#2001,1.);
#1077=VECTOR('',#2004,1.);
#1078=VECTOR('',#2005,1.);
#1079=VECTOR('',#2008,1.);
#1080=VECTOR('',#2011,1.);
#1081=VECTOR('',#2016,1.);
#1082=VECTOR('',#2017,1.);
#1083=VECTOR('',#2018,1.);
#1084=VECTOR('',#2019,1.);
#1085=VECTOR('',#2022,1.);
#1086=VECTOR('',#2023,1.);
#1087=VECTOR('',#2026,1.);
#1088=VECTOR('',#2029,1.);
#1089=VECTOR('',#2034,1.);
#1090=VECTOR('',#2035,1.);
#1091=VECTOR('',#2036,1.);
#1092=VECTOR('',#2037,1.);
#1093=VECTOR('',#2040,1.);
#1094=VECTOR('',#2041,1.);
#1095=VECTOR('',#2044,1.);
#1096=VECTOR('',#2047,1.);
#1097=VECTOR('',#2054,1.);
#1098=VECTOR('',#2059,1.);
#1099=EDGE_LOOP('',(#85,#86,#87,#88,#89,#90,#91,#92));
#1100=EDGE_LOOP('',(#93,#94,#95,#96,#97,#98,#99,#100));
#1101=EDGE_LOOP('',(#101,#102,#103,#104));
#1102=EDGE_LOOP('',(#105,#106,#107,#108));
#1103=EDGE_LOOP('',(#109,#110,#111,#112,#113,#114,#115,#116,#117,#118,#119,
#120,#121,#122,#123,#124,#125,#126));
#1104=EDGE_LOOP('',(#127,#128,#129,#130));
#1105=EDGE_LOOP('',(#131,#132,#133,#134));
#1106=EDGE_LOOP('',(#135,#136,#137,#138,#139,#140,#141,#142,#143,#144));
#1107=EDGE_LOOP('',(#145,#146,#147,#148,#149,#150,#151,#152,#153,#154));
#1108=EDGE_LOOP('',(#155,#156,#157,#158,#159,#160,#161,#162));
#1109=EDGE_LOOP('',(#163,#164,#165,#166));
#1110=EDGE_LOOP('',(#167,#168,#169,#170));
#1111=EDGE_LOOP('',(#171,#172,#173,#174,#175));
#1112=EDGE_LOOP('',(#176,#177,#178,#179));
#1113=EDGE_LOOP('',(#180,#181,#182,#183));
#1114=EDGE_LOOP('',(#184,#185,#186,#187));
#1115=EDGE_LOOP('',(#188,#189,#190,#191));
#1116=EDGE_LOOP('',(#192,#193,#194,#195));
#1117=EDGE_LOOP('',(#196,#197,#198,#199));
#1118=EDGE_LOOP('',(#200,#201,#202,#203));
#1119=EDGE_LOOP('',(#204,#205,#206,#207));
#1120=EDGE_LOOP('',(#208,#209,#210,#211));
#1121=EDGE_LOOP('',(#212,#213,#214,#215));
#1122=EDGE_LOOP('',(#216,#217,#218,#219,#220));
#1123=EDGE_LOOP('',(#221,#222,#223,#224));
#1124=EDGE_LOOP('',(#225,#226,#227,#228));
#1125=EDGE_LOOP('',(#229,#230,#231,#232));
#1126=EDGE_LOOP('',(#233,#234,#235,#236));
#1127=EDGE_LOOP('',(#237,#238,#239,#240));
#1128=EDGE_LOOP('',(#241,#242,#243,#244));
#1129=EDGE_LOOP('',(#245,#246,#247,#248));
#1130=EDGE_LOOP('',(#249,#250,#251,#252));
#1131=EDGE_LOOP('',(#253,#254,#255,#256));
#1132=EDGE_LOOP('',(#257,#258,#259,#260));
#1133=EDGE_LOOP('',(#261,#262,#263,#264));
#1134=EDGE_LOOP('',(#265,#266,#267,#268));
#1135=EDGE_LOOP('',(#269,#270,#271,#272));
#1136=EDGE_LOOP('',(#273,#274,#275,#276));
#1137=EDGE_LOOP('',(#277,#278,#279,#280));
#1138=EDGE_LOOP('',(#281,#282,#283,#284));
#1139=EDGE_LOOP('',(#285,#286,#287,#288));
#1140=EDGE_LOOP('',(#289,#290,#291,#292));
#1141=EDGE_LOOP('',(#293,#294,#295,#296));
#1142=EDGE_LOOP('',(#297,#298,#299,#300));
#1143=EDGE_LOOP('',(#301,#302,#303,#304));
#1144=EDGE_LOOP('',(#305,#306,#307,#308));
#1145=EDGE_LOOP('',(#309,#310,#311,#312));
#1146=EDGE_LOOP('',(#313,#314,#315,#316));
#1147=EDGE_LOOP('',(#317,#318,#319,#320));
#1148=EDGE_LOOP('',(#321,#322,#323,#324));
#1149=EDGE_LOOP('',(#325,#326,#327,#328));
#1150=EDGE_LOOP('',(#329,#330,#331,#332));
#1151=EDGE_LOOP('',(#333,#334,#335,#336));
#1152=EDGE_LOOP('',(#337,#338,#339,#340));
#1153=EDGE_LOOP('',(#341,#342,#343,#344));
#1154=EDGE_LOOP('',(#345,#346,#347,#348));
#1155=EDGE_LOOP('',(#349,#350,#351,#352));
#1156=EDGE_LOOP('',(#353,#354,#355,#356));
#1157=EDGE_LOOP('',(#357,#358,#359,#360));
#1158=EDGE_LOOP('',(#361,#362,#363,#364));
#1159=EDGE_LOOP('',(#365,#366,#367,#368));
#1160=EDGE_LOOP('',(#369,#370,#371,#372));
#1161=EDGE_LOOP('',(#373,#374,#375,#376));
#1162=EDGE_LOOP('',(#377,#378,#379,#380));
#1163=EDGE_LOOP('',(#381,#382,#383,#384));
#1164=EDGE_LOOP('',(#385,#386,#387,#388));
#1165=EDGE_LOOP('',(#389,#390,#391,#392));
#1166=EDGE_LOOP('',(#393,#394,#395,#396));
#1167=EDGE_LOOP('',(#397,#398,#399,#400));
#1168=EDGE_LOOP('',(#401,#402,#403,#404));
#1169=EDGE_LOOP('',(#405,#406,#407,#408));
#1170=EDGE_LOOP('',(#409,#410,#411,#412));
#1171=EDGE_LOOP('',(#413,#414,#415,#416));
#1172=EDGE_LOOP('',(#417,#418,#419));
#1173=EDGE_LOOP('',(#420,#421,#422,#423));
#1174=EDGE_LOOP('',(#424,#425,#426,#427));
#1175=EDGE_LOOP('',(#428,#429,#430));
#1176=EDGE_LOOP('',(#431,#432,#433,#434));
#1177=EDGE_LOOP('',(#435,#436,#437,#438));
#1178=EDGE_LOOP('',(#439,#440,#441));
#1179=EDGE_LOOP('',(#442,#443,#444,#445));
#1180=EDGE_LOOP('',(#446,#447,#448,#449));
#1181=EDGE_LOOP('',(#450,#451,#452));
#1182=EDGE_LOOP('',(#453,#454,#455,#456));
#1183=FACE_BOUND('',#1099,.T.);
#1184=FACE_BOUND('',#1100,.T.);
#1185=FACE_BOUND('',#1101,.T.);
#1186=FACE_BOUND('',#1102,.T.);
#1187=FACE_BOUND('',#1103,.T.);
#1188=FACE_BOUND('',#1104,.T.);
#1189=FACE_BOUND('',#1105,.T.);
#1190=FACE_BOUND('',#1106,.T.);
#1191=FACE_BOUND('',#1107,.T.);
#1192=FACE_BOUND('',#1108,.T.);
#1193=FACE_BOUND('',#1109,.T.);
#1194=FACE_BOUND('',#1110,.T.);
#1195=FACE_BOUND('',#1111,.T.);
#1196=FACE_BOUND('',#1112,.T.);
#1197=FACE_BOUND('',#1113,.T.);
#1198=FACE_BOUND('',#1114,.T.);
#1199=FACE_BOUND('',#1115,.T.);
#1200=FACE_BOUND('',#1116,.T.);
#1201=FACE_BOUND('',#1117,.T.);
#1202=FACE_BOUND('',#1118,.T.);
#1203=FACE_BOUND('',#1119,.T.);
#1204=FACE_BOUND('',#1120,.T.);
#1205=FACE_BOUND('',#1121,.T.);
#1206=FACE_BOUND('',#1122,.T.);
#1207=FACE_BOUND('',#1123,.T.);
#1208=FACE_BOUND('',#1124,.T.);
#1209=FACE_BOUND('',#1125,.T.);
#1210=FACE_BOUND('',#1126,.T.);
#1211=FACE_BOUND('',#1127,.T.);
#1212=FACE_BOUND('',#1128,.T.);
#1213=FACE_BOUND('',#1129,.T.);
#1214=FACE_BOUND('',#1130,.T.);
#1215=FACE_BOUND('',#1131,.T.);
#1216=FACE_BOUND('',#1132,.T.);
#1217=FACE_BOUND('',#1133,.T.);
#1218=FACE_BOUND('',#1134,.T.);
#1219=FACE_BOUND('',#1135,.T.);
#1220=FACE_BOUND('',#1136,.T.);
#1221=FACE_BOUND('',#1137,.T.);
#1222=FACE_BOUND('',#1138,.T.);
#1223=FACE_BOUND('',#1139,.T.);
#1224=FACE_BOUND('',#1140,.T.);
#1225=FACE_BOUND('',#1141,.T.);
#1226=FACE_BOUND('',#1142,.T.);
#1227=FACE_BOUND('',#1143,.T.);
#1228=FACE_BOUND('',#1144,.T.);
#1229=FACE_BOUND('',#1145,.T.);
#1230=FACE_BOUND('',#1146,.T.);
#1231=FACE_BOUND('',#1147,.T.);
#1232=FACE_BOUND('',#1148,.T.);
#1233=FACE_BOUND('',#1149,.T.);
#1234=FACE_BOUND('',#1150,.T.);
#1235=FACE_BOUND('',#1151,.T.);
#1236=FACE_BOUND('',#1152,.T.);
#1237=FACE_BOUND('',#1153,.T.);
#1238=FACE_BOUND('',#1154,.T.);
#1239=FACE_BOUND('',#1155,.T.);
#1240=FACE_BOUND('',#1156,.T.);
#1241=FACE_BOUND('',#1157,.T.);
#1242=FACE_BOUND('',#1158,.T.);
#1243=FACE_BOUND('',#1159,.T.);
#1244=FACE_BOUND('',#1160,.T.);
#1245=FACE_BOUND('',#1161,.T.);
#1246=FACE_BOUND('',#1162,.T.);
#1247=FACE_BOUND('',#1163,.T.);
#1248=FACE_BOUND('',#1164,.T.);
#1249=FACE_BOUND('',#1165,.T.);
#1250=FACE_BOUND('',#1166,.T.);
#1251=FACE_BOUND('',#1167,.T.);
#1252=FACE_BOUND('',#1168,.T.);
#1253=FACE_BOUND('',#1169,.T.);
#1254=FACE_BOUND('',#1170,.T.);
#1255=FACE_BOUND('',#1171,.T.);
#1256=FACE_BOUND('',#1172,.T.);
#1257=FACE_BOUND('',#1173,.T.);
#1258=FACE_BOUND('',#1174,.T.);
#1259=FACE_BOUND('',#1175,.T.);
#1260=FACE_BOUND('',#1176,.T.);
#1261=FACE_BOUND('',#1177,.T.);
#1262=FACE_BOUND('',#1178,.T.);
#1263=FACE_BOUND('',#1179,.T.);
#1264=FACE_BOUND('',#1180,.T.);
#1265=FACE_BOUND('',#1181,.T.);
#1266=FACE_BOUND('',#1182,.T.);
#1267=PLANE('',#1660);
#1268=PLANE('',#1661);
#1269=PLANE('',#1662);
#1270=PLANE('',#1665);
#1271=PLANE('',#1666);
#1272=PLANE('',#1667);
#1273=PLANE('',#1668);
#1274=PLANE('',#1669);
#1275=PLANE('',#1670);
#1276=PLANE('',#1672);
#1277=PLANE('',#1673);
#1278=PLANE('',#1674);
#1279=PLANE('',#1675);
#1280=PLANE('',#1676);
#1281=PLANE('',#1677);
#1282=PLANE('',#1678);
#1283=PLANE('',#1679);
#1284=PLANE('',#1680);
#1285=PLANE('',#1681);
#1286=PLANE('',#1682);
#1287=PLANE('',#1684);
#1288=PLANE('',#1685);
#1289=PLANE('',#1686);
#1290=PLANE('',#1687);
#1291=PLANE('',#1688);
#1292=PLANE('',#1689);
#1293=PLANE('',#1690);
#1294=PLANE('',#1691);
#1295=PLANE('',#1692);
#1296=PLANE('',#1693);
#1297=PLANE('',#1694);
#1298=PLANE('',#1695);
#1299=PLANE('',#1696);
#1300=PLANE('',#1697);
#1301=PLANE('',#1698);
#1302=PLANE('',#1699);
#1303=PLANE('',#1700);
#1304=PLANE('',#1701);
#1305=PLANE('',#1702);
#1306=PLANE('',#1703);
#1307=PLANE('',#1704);
#1308=PLANE('',#1705);
#1309=PLANE('',#1706);
#1310=PLANE('',#1707);
#1311=PLANE('',#1708);
#1312=PLANE('',#1709);
#1313=PLANE('',#1710);
#1314=PLANE('',#1711);
#1315=PLANE('',#1712);
#1316=PLANE('',#1713);
#1317=PLANE('',#1714);
#1318=PLANE('',#1715);
#1319=PLANE('',#1716);
#1320=PLANE('',#1717);
#1321=PLANE('',#1718);
#1322=PLANE('',#1719);
#1323=PLANE('',#1720);
#1324=PLANE('',#1721);
#1325=PLANE('',#1722);
#1326=PLANE('',#1723);
#1327=PLANE('',#1724);
#1328=PLANE('',#1726);
#1329=PLANE('',#1728);
#1330=ADVANCED_FACE('',(#1183),#1267,.F.);
#1331=ADVANCED_FACE('',(#1184),#1268,.T.);
#1332=ADVANCED_FACE('',(#1185,#1186,#1187,#1188,#1189),#1269,.F.);
#1333=ADVANCED_FACE('',(#1190),#1270,.T.);
#1334=ADVANCED_FACE('',(#1191),#1271,.F.);
#1335=ADVANCED_FACE('',(#1192),#1272,.T.);
#1336=ADVANCED_FACE('',(#1193),#1273,.F.);
#1337=ADVANCED_FACE('',(#1194),#1274,.T.);
#1338=ADVANCED_FACE('',(#1195),#1275,.T.);
#1339=ADVANCED_FACE('',(#1196),#1276,.F.);
#1340=ADVANCED_FACE('',(#1197),#1277,.F.);
#1341=ADVANCED_FACE('',(#1198),#1278,.T.);
#1342=ADVANCED_FACE('',(#1199),#1279,.T.);
#1343=ADVANCED_FACE('',(#1200),#1280,.T.);
#1344=ADVANCED_FACE('',(#1201),#1281,.F.);
#1345=ADVANCED_FACE('',(#1202),#1282,.T.);
#1346=ADVANCED_FACE('',(#1203),#1283,.T.);
#1347=ADVANCED_FACE('',(#1204),#1284,.T.);
#1348=ADVANCED_FACE('',(#1205),#1285,.F.);
#1349=ADVANCED_FACE('',(#1206),#1286,.T.);
#1350=ADVANCED_FACE('',(#1207),#1287,.T.);
#1351=ADVANCED_FACE('',(#1208),#1288,.F.);
#1352=ADVANCED_FACE('',(#1209),#1289,.F.);
#1353=ADVANCED_FACE('',(#1210),#1290,.T.);
#1354=ADVANCED_FACE('',(#1211,#1212),#1291,.T.);
#1355=ADVANCED_FACE('',(#1213),#1292,.T.);
#1356=ADVANCED_FACE('',(#1214),#1293,.T.);
#1357=ADVANCED_FACE('',(#1215),#1294,.F.);
#1358=ADVANCED_FACE('',(#1216),#1295,.F.);
#1359=ADVANCED_FACE('',(#1217,#1218),#1296,.T.);
#1360=ADVANCED_FACE('',(#1219),#1297,.T.);
#1361=ADVANCED_FACE('',(#1220),#1298,.T.);
#1362=ADVANCED_FACE('',(#1221),#1299,.F.);
#1363=ADVANCED_FACE('',(#1222),#1300,.F.);
#1364=ADVANCED_FACE('',(#1223,#1224),#1301,.T.);
#1365=ADVANCED_FACE('',(#1225),#1302,.T.);
#1366=ADVANCED_FACE('',(#1226),#1303,.F.);
#1367=ADVANCED_FACE('',(#1227),#1304,.F.);
#1368=ADVANCED_FACE('',(#1228),#1305,.T.);
#1369=ADVANCED_FACE('',(#1229,#1230),#1306,.T.);
#1370=ADVANCED_FACE('',(#1231),#1307,.T.);
#1371=ADVANCED_FACE('',(#1232),#1308,.F.);
#1372=ADVANCED_FACE('',(#1233),#1309,.T.);
#1373=ADVANCED_FACE('',(#1234),#1310,.T.);
#1374=ADVANCED_FACE('',(#1235),#1311,.F.);
#1375=ADVANCED_FACE('',(#1236),#1312,.T.);
#1376=ADVANCED_FACE('',(#1237),#1313,.F.);
#1377=ADVANCED_FACE('',(#1238),#1314,.T.);
#1378=ADVANCED_FACE('',(#1239),#1315,.T.);
#1379=ADVANCED_FACE('',(#1240),#1316,.F.);
#1380=ADVANCED_FACE('',(#1241),#1317,.T.);
#1381=ADVANCED_FACE('',(#1242),#1318,.F.);
#1382=ADVANCED_FACE('',(#1243),#1319,.F.);
#1383=ADVANCED_FACE('',(#1244),#1320,.T.);
#1384=ADVANCED_FACE('',(#1245),#1321,.T.);
#1385=ADVANCED_FACE('',(#1246),#1322,.T.);
#1386=ADVANCED_FACE('',(#1247),#1323,.F.);
#1387=ADVANCED_FACE('',(#1248),#1324,.T.);
#1388=ADVANCED_FACE('',(#1249),#1325,.T.);
#1389=ADVANCED_FACE('',(#1250),#1326,.F.);
#1390=ADVANCED_FACE('',(#1251),#1327,.T.);
#1391=ADVANCED_FACE('',(#1252),#1328,.F.);
#1392=ADVANCED_FACE('',(#1253),#1329,.F.);
#1393=ADVANCED_FACE('',(#1254),#16,.T.);
#1394=ADVANCED_FACE('',(#1255),#17,.T.);
#1395=ADVANCED_FACE('',(#1256),#12,.T.);
#1396=ADVANCED_FACE('',(#1257),#18,.T.);
#1397=ADVANCED_FACE('',(#1258),#19,.T.);
#1398=ADVANCED_FACE('',(#1259),#13,.T.);
#1399=ADVANCED_FACE('',(#1260),#20,.T.);
#1400=ADVANCED_FACE('',(#1261),#21,.T.);
#1401=ADVANCED_FACE('',(#1262),#14,.T.);
#1402=ADVANCED_FACE('',(#1263),#22,.T.);
#1403=ADVANCED_FACE('',(#1264),#23,.T.);
#1404=ADVANCED_FACE('',(#1265),#15,.T.);
#1405=ADVANCED_FACE('',(#1266),#24,.T.);
#1406=CLOSED_SHELL('',(#1330,#1331,#1332,#1333,#1334,#1335,#1336,#1337,
#1338,#1339,#1340,#1341,#1342,#1343,#1344,#1345,#1346,#1347,#1348,#1349,
#1350,#1351,#1352,#1353,#1354,#1355,#1356,#1357,#1358,#1359,#1360,#1361,
#1362,#1363,#1364,#1365,#1366,#1367,#1368,#1369,#1370,#1371,#1372,#1373,
#1374,#1375,#1376,#1377,#1378,#1379,#1380,#1381,#1382,#1383,#1384,#1385,
#1386,#1387,#1388,#1389,#1390,#1391,#1392,#1393,#1394,#1395,#1396,#1397,
#1398,#1399,#1400,#1401,#1402,#1403,#1404,#1405));
#1407=STYLED_ITEM('',(#1408),#1656);
#1408=PRESENTATION_STYLE_ASSIGNMENT((#1449));
#1409=PRESENTATION_STYLE_ASSIGNMENT((#1450));
#1410=PRESENTATION_STYLE_ASSIGNMENT((#1451));
#1411=PRESENTATION_STYLE_ASSIGNMENT((#1452));
#1412=PRESENTATION_STYLE_ASSIGNMENT((#1453));
#1413=PRESENTATION_STYLE_ASSIGNMENT((#1454));
#1414=PRESENTATION_STYLE_ASSIGNMENT((#1455));
#1415=PRESENTATION_STYLE_ASSIGNMENT((#1456));
#1416=PRESENTATION_STYLE_ASSIGNMENT((#1457));
#1417=PRESENTATION_STYLE_ASSIGNMENT((#1458));
#1418=PRESENTATION_STYLE_ASSIGNMENT((#1459));
#1419=PRESENTATION_STYLE_ASSIGNMENT((#1460));
#1420=PRESENTATION_STYLE_ASSIGNMENT((#1461));
#1421=PRESENTATION_STYLE_ASSIGNMENT((#1462));
#1422=PRESENTATION_STYLE_ASSIGNMENT((#1463));
#1423=PRESENTATION_STYLE_ASSIGNMENT((#1464));
#1424=PRESENTATION_STYLE_ASSIGNMENT((#1465));
#1425=PRESENTATION_STYLE_ASSIGNMENT((#1466));
#1426=PRESENTATION_STYLE_ASSIGNMENT((#1467));
#1427=PRESENTATION_STYLE_ASSIGNMENT((#1468));
#1428=PRESENTATION_STYLE_ASSIGNMENT((#1469));
#1429=PRESENTATION_STYLE_ASSIGNMENT((#1470));
#1430=PRESENTATION_STYLE_ASSIGNMENT((#1471));
#1431=PRESENTATION_STYLE_ASSIGNMENT((#1472));
#1432=PRESENTATION_STYLE_ASSIGNMENT((#1473));
#1433=PRESENTATION_STYLE_ASSIGNMENT((#1474));
#1434=PRESENTATION_STYLE_ASSIGNMENT((#1475));
#1435=PRESENTATION_STYLE_ASSIGNMENT((#1476));
#1436=PRESENTATION_STYLE_ASSIGNMENT((#1477));
#1437=PRESENTATION_STYLE_ASSIGNMENT((#1478));
#1438=PRESENTATION_STYLE_ASSIGNMENT((#1479));
#1439=PRESENTATION_STYLE_ASSIGNMENT((#1480));
#1440=PRESENTATION_STYLE_ASSIGNMENT((#1481));
#1441=PRESENTATION_STYLE_ASSIGNMENT((#1482));
#1442=PRESENTATION_STYLE_ASSIGNMENT((#1483));
#1443=PRESENTATION_STYLE_ASSIGNMENT((#1484));
#1444=PRESENTATION_STYLE_ASSIGNMENT((#1485));
#1445=PRESENTATION_STYLE_ASSIGNMENT((#1486));
#1446=PRESENTATION_STYLE_ASSIGNMENT((#1487));
#1447=PRESENTATION_STYLE_ASSIGNMENT((#1488));
#1448=PRESENTATION_STYLE_ASSIGNMENT((#1489));
#1449=SURFACE_STYLE_USAGE(.BOTH.,#1490);
#1450=SURFACE_STYLE_USAGE(.BOTH.,#1491);
#1451=SURFACE_STYLE_USAGE(.BOTH.,#1492);
#1452=SURFACE_STYLE_USAGE(.BOTH.,#1493);
#1453=SURFACE_STYLE_USAGE(.BOTH.,#1494);
#1454=SURFACE_STYLE_USAGE(.BOTH.,#1495);
#1455=SURFACE_STYLE_USAGE(.BOTH.,#1496);
#1456=SURFACE_STYLE_USAGE(.BOTH.,#1497);
#1457=SURFACE_STYLE_USAGE(.BOTH.,#1498);
#1458=SURFACE_STYLE_USAGE(.BOTH.,#1499);
#1459=SURFACE_STYLE_USAGE(.BOTH.,#1500);
#1460=SURFACE_STYLE_USAGE(.BOTH.,#1501);
#1461=SURFACE_STYLE_USAGE(.BOTH.,#1502);
#1462=SURFACE_STYLE_USAGE(.BOTH.,#1503);
#1463=SURFACE_STYLE_USAGE(.BOTH.,#1504);
#1464=SURFACE_STYLE_USAGE(.BOTH.,#1505);
#1465=SURFACE_STYLE_USAGE(.BOTH.,#1506);
#1466=SURFACE_STYLE_USAGE(.BOTH.,#1507);
#1467=SURFACE_STYLE_USAGE(.BOTH.,#1508);
#1468=SURFACE_STYLE_USAGE(.BOTH.,#1509);
#1469=SURFACE_STYLE_USAGE(.BOTH.,#1510);
#1470=SURFACE_STYLE_USAGE(.BOTH.,#1511);
#1471=SURFACE_STYLE_USAGE(.BOTH.,#1512);
#1472=SURFACE_STYLE_USAGE(.BOTH.,#1513);
#1473=SURFACE_STYLE_USAGE(.BOTH.,#1514);
#1474=SURFACE_STYLE_USAGE(.BOTH.,#1515);
#1475=SURFACE_STYLE_USAGE(.BOTH.,#1516);
#1476=SURFACE_STYLE_USAGE(.BOTH.,#1517);
#1477=SURFACE_STYLE_USAGE(.BOTH.,#1518);
#1478=SURFACE_STYLE_USAGE(.BOTH.,#1519);
#1479=SURFACE_STYLE_USAGE(.BOTH.,#1520);
#1480=SURFACE_STYLE_USAGE(.BOTH.,#1521);
#1481=SURFACE_STYLE_USAGE(.BOTH.,#1522);
#1482=SURFACE_STYLE_USAGE(.BOTH.,#1523);
#1483=SURFACE_STYLE_USAGE(.BOTH.,#1524);
#1484=SURFACE_STYLE_USAGE(.BOTH.,#1525);
#1485=SURFACE_STYLE_USAGE(.BOTH.,#1526);
#1486=SURFACE_STYLE_USAGE(.BOTH.,#1527);
#1487=SURFACE_STYLE_USAGE(.BOTH.,#1528);
#1488=SURFACE_STYLE_USAGE(.BOTH.,#1529);
#1489=SURFACE_STYLE_USAGE(.BOTH.,#1530);
#1490=SURFACE_SIDE_STYLE('',(#1531));
#1491=SURFACE_SIDE_STYLE('',(#1532));
#1492=SURFACE_SIDE_STYLE('',(#1533));
#1493=SURFACE_SIDE_STYLE('',(#1534));
#1494=SURFACE_SIDE_STYLE('',(#1535));
#1495=SURFACE_SIDE_STYLE('',(#1536));
#1496=SURFACE_SIDE_STYLE('',(#1537));
#1497=SURFACE_SIDE_STYLE('',(#1538));
#1498=SURFACE_SIDE_STYLE('',(#1539));
#1499=SURFACE_SIDE_STYLE('',(#1540));
#1500=SURFACE_SIDE_STYLE('',(#1541));
#1501=SURFACE_SIDE_STYLE('',(#1542));
#1502=SURFACE_SIDE_STYLE('',(#1543));
#1503=SURFACE_SIDE_STYLE('',(#1544));
#1504=SURFACE_SIDE_STYLE('',(#1545));
#1505=SURFACE_SIDE_STYLE('',(#1546));
#1506=SURFACE_SIDE_STYLE('',(#1547));
#1507=SURFACE_SIDE_STYLE('',(#1548));
#1508=SURFACE_SIDE_STYLE('',(#1549));
#1509=SURFACE_SIDE_STYLE('',(#1550));
#1510=SURFACE_SIDE_STYLE('',(#1551));
#1511=SURFACE_SIDE_STYLE('',(#1552));
#1512=SURFACE_SIDE_STYLE('',(#1553));
#1513=SURFACE_SIDE_STYLE('',(#1554));
#1514=SURFACE_SIDE_STYLE('',(#1555));
#1515=SURFACE_SIDE_STYLE('',(#1556));
#1516=SURFACE_SIDE_STYLE('',(#1557));
#1517=SURFACE_SIDE_STYLE('',(#1558));
#1518=SURFACE_SIDE_STYLE('',(#1559));
#1519=SURFACE_SIDE_STYLE('',(#1560));
#1520=SURFACE_SIDE_STYLE('',(#1561));
#1521=SURFACE_SIDE_STYLE('',(#1562));
#1522=SURFACE_SIDE_STYLE('',(#1563));
#1523=SURFACE_SIDE_STYLE('',(#1564));
#1524=SURFACE_SIDE_STYLE('',(#1565));
#1525=SURFACE_SIDE_STYLE('',(#1566));
#1526=SURFACE_SIDE_STYLE('',(#1567));
#1527=SURFACE_SIDE_STYLE('',(#1568));
#1528=SURFACE_SIDE_STYLE('',(#1569));
#1529=SURFACE_SIDE_STYLE('',(#1570));
#1530=SURFACE_SIDE_STYLE('',(#1571));
#1531=SURFACE_STYLE_FILL_AREA(#1572);
#1532=SURFACE_STYLE_FILL_AREA(#1573);
#1533=SURFACE_STYLE_FILL_AREA(#1574);
#1534=SURFACE_STYLE_FILL_AREA(#1575);
#1535=SURFACE_STYLE_FILL_AREA(#1576);
#1536=SURFACE_STYLE_FILL_AREA(#1577);
#1537=SURFACE_STYLE_FILL_AREA(#1578);
#1538=SURFACE_STYLE_FILL_AREA(#1579);
#1539=SURFACE_STYLE_FILL_AREA(#1580);
#1540=SURFACE_STYLE_FILL_AREA(#1581);
#1541=SURFACE_STYLE_FILL_AREA(#1582);
#1542=SURFACE_STYLE_FILL_AREA(#1583);
#1543=SURFACE_STYLE_FILL_AREA(#1584);
#1544=SURFACE_STYLE_FILL_AREA(#1585);
#1545=SURFACE_STYLE_FILL_AREA(#1586);
#1546=SURFACE_STYLE_FILL_AREA(#1587);
#1547=SURFACE_STYLE_FILL_AREA(#1588);
#1548=SURFACE_STYLE_FILL_AREA(#1589);
#1549=SURFACE_STYLE_FILL_AREA(#1590);
#1550=SURFACE_STYLE_FILL_AREA(#1591);
#1551=SURFACE_STYLE_FILL_AREA(#1592);
#1552=SURFACE_STYLE_FILL_AREA(#1593);
#1553=SURFACE_STYLE_FILL_AREA(#1594);
#1554=SURFACE_STYLE_FILL_AREA(#1595);
#1555=SURFACE_STYLE_FILL_AREA(#1596);
#1556=SURFACE_STYLE_FILL_AREA(#1597);
#1557=SURFACE_STYLE_FILL_AREA(#1598);
#1558=SURFACE_STYLE_FILL_AREA(#1599);
#1559=SURFACE_STYLE_FILL_AREA(#1600);
#1560=SURFACE_STYLE_FILL_AREA(#1601);
#1561=SURFACE_STYLE_FILL_AREA(#1602);
#1562=SURFACE_STYLE_FILL_AREA(#1603);
#1563=SURFACE_STYLE_FILL_AREA(#1604);
#1564=SURFACE_STYLE_FILL_AREA(#1605);
#1565=SURFACE_STYLE_FILL_AREA(#1606);
#1566=SURFACE_STYLE_FILL_AREA(#1607);
#1567=SURFACE_STYLE_FILL_AREA(#1608);
#1568=SURFACE_STYLE_FILL_AREA(#1609);
#1569=SURFACE_STYLE_FILL_AREA(#1610);
#1570=SURFACE_STYLE_FILL_AREA(#1611);
#1571=SURFACE_STYLE_FILL_AREA(#1612);
#1572=FILL_AREA_STYLE('',(#1613));
#1573=FILL_AREA_STYLE('',(#1614));
#1574=FILL_AREA_STYLE('',(#1615));
#1575=FILL_AREA_STYLE('',(#1616));
#1576=FILL_AREA_STYLE('',(#1617));
#1577=FILL_AREA_STYLE('',(#1618));
#1578=FILL_AREA_STYLE('',(#1619));
#1579=FILL_AREA_STYLE('',(#1620));
#1580=FILL_AREA_STYLE('',(#1621));
#1581=FILL_AREA_STYLE('',(#1622));
#1582=FILL_AREA_STYLE('',(#1623));
#1583=FILL_AREA_STYLE('',(#1624));
#1584=FILL_AREA_STYLE('',(#1625));
#1585=FILL_AREA_STYLE('',(#1626));
#1586=FILL_AREA_STYLE('',(#1627));
#1587=FILL_AREA_STYLE('',(#1628));
#1588=FILL_AREA_STYLE('',(#1629));
#1589=FILL_AREA_STYLE('',(#1630));
#1590=FILL_AREA_STYLE('',(#1631));
#1591=FILL_AREA_STYLE('',(#1632));
#1592=FILL_AREA_STYLE('',(#1633));
#1593=FILL_AREA_STYLE('',(#1634));
#1594=FILL_AREA_STYLE('',(#1635));
#1595=FILL_AREA_STYLE('',(#1636));
#1596=FILL_AREA_STYLE('',(#1637));
#1597=FILL_AREA_STYLE('',(#1638));
#1598=FILL_AREA_STYLE('',(#1639));
#1599=FILL_AREA_STYLE('',(#1640));
#1600=FILL_AREA_STYLE('',(#1641));
#1601=FILL_AREA_STYLE('',(#1642));
#1602=FILL_AREA_STYLE('',(#1643));
#1603=FILL_AREA_STYLE('',(#1644));
#1604=FILL_AREA_STYLE('',(#1645));
#1605=FILL_AREA_STYLE('',(#1646));
#1606=FILL_AREA_STYLE('',(#1647));
#1607=FILL_AREA_STYLE('',(#1648));
#1608=FILL_AREA_STYLE('',(#1649));
#1609=FILL_AREA_STYLE('',(#1650));
#1610=FILL_AREA_STYLE('',(#1651));
#1611=FILL_AREA_STYLE('',(#1652));
#1612=FILL_AREA_STYLE('',(#1653));
#1613=FILL_AREA_STYLE_COLOUR('',#1654);
#1614=FILL_AREA_STYLE_COLOUR('',#1655);
#1615=FILL_AREA_STYLE_COLOUR('',#1655);
#1616=FILL_AREA_STYLE_COLOUR('',#1655);
#1617=FILL_AREA_STYLE_COLOUR('',#1655);
#1618=FILL_AREA_STYLE_COLOUR('',#1655);
#1619=FILL_AREA_STYLE_COLOUR('',#1655);
#1620=FILL_AREA_STYLE_COLOUR('',#1655);
#1621=FILL_AREA_STYLE_COLOUR('',#1655);
#1622=FILL_AREA_STYLE_COLOUR('',#1655);
#1623=FILL_AREA_STYLE_COLOUR('',#1655);
#1624=FILL_AREA_STYLE_COLOUR('',#1655);
#1625=FILL_AREA_STYLE_COLOUR('',#1655);
#1626=FILL_AREA_STYLE_COLOUR('',#1655);
#1627=FILL_AREA_STYLE_COLOUR('',#1655);
#1628=FILL_AREA_STYLE_COLOUR('',#1655);
#1629=FILL_AREA_STYLE_COLOUR('',#1655);
#1630=FILL_AREA_STYLE_COLOUR('',#1655);
#1631=FILL_AREA_STYLE_COLOUR('',#1655);
#1632=FILL_AREA_STYLE_COLOUR('',#1655);
#1633=FILL_AREA_STYLE_COLOUR('',#1655);
#1634=FILL_AREA_STYLE_COLOUR('',#25);
#1635=FILL_AREA_STYLE_COLOUR('',#25);
#1636=FILL_AREA_STYLE_COLOUR('',#25);
#1637=FILL_AREA_STYLE_COLOUR('',#25);
#1638=FILL_AREA_STYLE_COLOUR('',#25);
#1639=FILL_AREA_STYLE_COLOUR('',#25);
#1640=FILL_AREA_STYLE_COLOUR('',#25);
#1641=FILL_AREA_STYLE_COLOUR('',#25);
#1642=FILL_AREA_STYLE_COLOUR('',#25);
#1643=FILL_AREA_STYLE_COLOUR('',#25);
#1644=FILL_AREA_STYLE_COLOUR('',#26);
#1645=FILL_AREA_STYLE_COLOUR('',#26);
#1646=FILL_AREA_STYLE_COLOUR('',#26);
#1647=FILL_AREA_STYLE_COLOUR('',#26);
#1648=FILL_AREA_STYLE_COLOUR('',#26);
#1649=FILL_AREA_STYLE_COLOUR('',#26);
#1650=FILL_AREA_STYLE_COLOUR('',#26);
#1651=FILL_AREA_STYLE_COLOUR('',#26);
#1652=FILL_AREA_STYLE_COLOUR('',#26);
#1653=FILL_AREA_STYLE_COLOUR('',#26);
#1654=COLOUR_RGB('',0.901960784313726,0.901960784313726,0.901960784313726);
#1655=COLOUR_RGB('',0.141176470588235,0.141176470588235,0.141176470588235);
#1656=MANIFOLD_SOLID_BREP('AZSR190-1A-24D Relay',#1406);
#1657=SHAPE_DEFINITION_REPRESENTATION(#2501,#1658);
#1658=SHAPE_REPRESENTATION('AZSR190-1A-24D Relay',(#1659),#2496);
#1659=AXIS2_PLACEMENT_3D('',#2112,#1754,#1755);
#1660=AXIS2_PLACEMENT_3D('',#2113,#1756,#1757);
#1661=AXIS2_PLACEMENT_3D('',#2130,#1766,#1767);
#1662=AXIS2_PLACEMENT_3D('',#2147,#1776,#1777);
#1663=AXIS2_PLACEMENT_3D('',#2164,#1786,#1787);
#1664=AXIS2_PLACEMENT_3D('',#2196,#1803,#1804);
#1665=AXIS2_PLACEMENT_3D('',#2213,#1813,#1814);
#1666=AXIS2_PLACEMENT_3D('',#2228,#1823,#1824);
#1667=AXIS2_PLACEMENT_3D('',#2243,#1833,#1834);
#1668=AXIS2_PLACEMENT_3D('',#2257,#1842,#1843);
#1669=AXIS2_PLACEMENT_3D('',#2261,#1846,#1847);
#1670=AXIS2_PLACEMENT_3D('',#2263,#1849,#1850);
#1671=AXIS2_PLACEMENT_3D('',#2264,#1851,#1852);
#1672=AXIS2_PLACEMENT_3D('',#2265,#1853,#1854);
#1673=AXIS2_PLACEMENT_3D('',#2269,#1857,#1858);
#1674=AXIS2_PLACEMENT_3D('',#2273,#1861,#1862);
#1675=AXIS2_PLACEMENT_3D('',#2275,#1864,#1865);
#1676=AXIS2_PLACEMENT_3D('',#2276,#1866,#1867);
#1677=AXIS2_PLACEMENT_3D('',#2280,#1870,#1871);
#1678=AXIS2_PLACEMENT_3D('',#2284,#1874,#1875);
#1679=AXIS2_PLACEMENT_3D('',#2286,#1877,#1878);
#1680=AXIS2_PLACEMENT_3D('',#2287,#1879,#1880);
#1681=AXIS2_PLACEMENT_3D('',#2291,#1883,#1884);
#1682=AXIS2_PLACEMENT_3D('',#2293,#1886,#1887);
#1683=AXIS2_PLACEMENT_3D('',#2294,#1888,#1889);
#1684=AXIS2_PLACEMENT_3D('',#2295,#1890,#1891);
#1685=AXIS2_PLACEMENT_3D('',#2301,#1895,#1896);
#1686=AXIS2_PLACEMENT_3D('',#2305,#1899,#1900);
#1687=AXIS2_PLACEMENT_3D('',#2309,#1903,#1904);
#1688=AXIS2_PLACEMENT_3D('',#2311,#1906,#1907);
#1689=AXIS2_PLACEMENT_3D('',#2320,#1912,#1913);
#1690=AXIS2_PLACEMENT_3D('',#2326,#1917,#1918);
#1691=AXIS2_PLACEMENT_3D('',#2330,#1921,#1922);
#1692=AXIS2_PLACEMENT_3D('',#2334,#1925,#1926);
#1693=AXIS2_PLACEMENT_3D('',#2336,#1928,#1929);
#1694=AXIS2_PLACEMENT_3D('',#2345,#1934,#1935);
#1695=AXIS2_PLACEMENT_3D('',#2351,#1939,#1940);
#1696=AXIS2_PLACEMENT_3D('',#2355,#1943,#1944);
#1697=AXIS2_PLACEMENT_3D('',#2359,#1947,#1948);
#1698=AXIS2_PLACEMENT_3D('',#2361,#1950,#1951);
#1699=AXIS2_PLACEMENT_3D('',#2370,#1956,#1957);
#1700=AXIS2_PLACEMENT_3D('',#2376,#1961,#1962);
#1701=AXIS2_PLACEMENT_3D('',#2380,#1965,#1966);
#1702=AXIS2_PLACEMENT_3D('',#2384,#1969,#1970);
#1703=AXIS2_PLACEMENT_3D('',#2386,#1972,#1973);
#1704=AXIS2_PLACEMENT_3D('',#2395,#1978,#1979);
#1705=AXIS2_PLACEMENT_3D('',#2404,#1984,#1985);
#1706=AXIS2_PLACEMENT_3D('',#2407,#1988,#1989);
#1707=AXIS2_PLACEMENT_3D('',#2409,#1991,#1992);
#1708=AXIS2_PLACEMENT_3D('',#2411,#1994,#1995);
#1709=AXIS2_PLACEMENT_3D('',#2412,#1996,#1997);
#1710=AXIS2_PLACEMENT_3D('',#2421,#2002,#2003);
#1711=AXIS2_PLACEMENT_3D('',#2424,#2006,#2007);
#1712=AXIS2_PLACEMENT_3D('',#2426,#2009,#2010);
#1713=AXIS2_PLACEMENT_3D('',#2428,#2012,#2013);
#1714=AXIS2_PLACEMENT_3D('',#2429,#2014,#2015);
#1715=AXIS2_PLACEMENT_3D('',#2438,#2020,#2021);
#1716=AXIS2_PLACEMENT_3D('',#2441,#2024,#2025);
#1717=AXIS2_PLACEMENT_3D('',#2443,#2027,#2028);
#1718=AXIS2_PLACEMENT_3D('',#2445,#2030,#2031);
#1719=AXIS2_PLACEMENT_3D('',#2446,#2032,#2033);
#1720=AXIS2_PLACEMENT_3D('',#2455,#2038,#2039);
#1721=AXIS2_PLACEMENT_3D('',#2458,#2042,#2043);
#1722=AXIS2_PLACEMENT_3D('',#2460,#2045,#2046);
#1723=AXIS2_PLACEMENT_3D('',#2462,#2048,#2049);
#1724=AXIS2_PLACEMENT_3D('',#2463,#2050,#2051);
#1725=AXIS2_PLACEMENT_3D('',#2464,#2052,#2053);
#1726=AXIS2_PLACEMENT_3D('',#2466,#2055,#2056);
#1727=AXIS2_PLACEMENT_3D('',#2467,#2057,#2058);
#1728=AXIS2_PLACEMENT_3D('',#2469,#2060,#2061);
#1729=AXIS2_PLACEMENT_3D('',#2470,#2062,#2063);
#1730=AXIS2_PLACEMENT_3D('',#2471,#2064,#2065);
#1731=AXIS2_PLACEMENT_3D('',#2472,#2066,#2067);
#1732=AXIS2_PLACEMENT_3D('',#2473,#2068,#2069);
#1733=AXIS2_PLACEMENT_3D('',#2474,#2070,#2071);
#1734=AXIS2_PLACEMENT_3D('',#2475,#2072,#2073);
#1735=AXIS2_PLACEMENT_3D('',#2476,#2074,#2075);
#1736=AXIS2_PLACEMENT_3D('',#2477,#2076,#2077);
#1737=AXIS2_PLACEMENT_3D('',#2478,#2078,#2079);
#1738=AXIS2_PLACEMENT_3D('',#2479,#2080,#2081);
#1739=AXIS2_PLACEMENT_3D('',#2480,#2082,#2083);
#1740=AXIS2_PLACEMENT_3D('',#2481,#2084,#2085);
#1741=AXIS2_PLACEMENT_3D('',#2482,#2086,#2087);
#1742=AXIS2_PLACEMENT_3D('',#2483,#2088,#2089);
#1743=AXIS2_PLACEMENT_3D('',#2484,#2090,#2091);
#1744=AXIS2_PLACEMENT_3D('',#2485,#2092,#2093);
#1745=AXIS2_PLACEMENT_3D('',#2486,#2094,#2095);
#1746=AXIS2_PLACEMENT_3D('',#2487,#2096,#2097);
#1747=AXIS2_PLACEMENT_3D('',#2488,#2098,#2099);
#1748=AXIS2_PLACEMENT_3D('',#2489,#2100,#2101);
#1749=AXIS2_PLACEMENT_3D('',#2490,#2102,#2103);
#1750=AXIS2_PLACEMENT_3D('',#2491,#2104,#2105);
#1751=AXIS2_PLACEMENT_3D('',#2492,#2106,#2107);
#1752=AXIS2_PLACEMENT_3D('',#2493,#2108,#2109);
#1753=AXIS2_PLACEMENT_3D('',#2494,#2110,#2111);
#1754=DIRECTION('',(0.,0.,1.));
#1755=DIRECTION('',(1.,0.,0.));
#1756=DIRECTION('',(0.,0.,1.));
#1757=DIRECTION('',(0.,-1.,0.));
#1758=DIRECTION('',(1.14997006251253E-16,-1.,0.));
#1759=DIRECTION('',(-1.,0.,0.));
#1760=DIRECTION('',(0.,-1.,0.));
#1761=DIRECTION('',(-1.,0.,0.));
#1762=DIRECTION('',(0.,-1.,0.));
#1763=DIRECTION('',(-1.,0.,0.));
#1764=DIRECTION('',(1.14997006251253E-16,-1.,0.));
#1765=DIRECTION('',(1.,0.,0.));
#1766=DIRECTION('',(0.,1.,0.));
#1767=DIRECTION('',(1.,0.,0.));
#1768=DIRECTION('',(-1.14997006251253E-16,0.,1.));
#1769=DIRECTION('',(-1.,0.,0.));
#1770=DIRECTION('',(2.11874623020068E-16,0.,1.));
#1771=DIRECTION('',(-1.,0.,0.));
#1772=DIRECTION('',(2.11874623020068E-16,0.,1.));
#1773=DIRECTION('',(-1.,0.,0.));
#1774=DIRECTION('',(-1.14997006251253E-16,0.,1.));
#1775=DIRECTION('',(1.,0.,0.));
#1776=DIRECTION('',(0.,1.,0.));
#1777=DIRECTION('',(1.,0.,0.));
#1778=DIRECTION('',(6.39108649044086E-16,0.,1.));
#1779=DIRECTION('',(-1.,0.,5.13992141030165E-16));
#1780=DIRECTION('',(0.,0.,1.));
#1781=DIRECTION('',(-1.,0.,2.56996070515082E-16));
#1782=DIRECTION('',(0.,0.,1.));
#1783=DIRECTION('',(1.,0.,0.));
#1784=DIRECTION('',(-3.30423519233678E-16,0.,1.));
#1785=DIRECTION('',(1.,0.,0.));
#1786=DIRECTION('',(0.,1.,0.));
#1787=DIRECTION('',(1.,0.,0.));
#1788=DIRECTION('',(2.11874623020068E-16,0.,1.));
#1789=DIRECTION('',(-1.,0.,8.67361737988403E-16));
#1790=DIRECTION('',(-1.15648231731787E-15,0.,-1.));
#1791=DIRECTION('',(-1.,0.,4.33680868994202E-16));
#1792=DIRECTION('',(2.11874623020068E-16,0.,1.));
#1793=DIRECTION('',(-1.,0.,4.33680868994202E-16));
#1794=DIRECTION('',(0.,0.,-1.));
#1795=DIRECTION('',(-1.,0.,0.));
#1796=DIRECTION('',(7.70988211545247E-16,0.,-1.));
#1797=DIRECTION('',(1.,0.,0.));
#1798=DIRECTION('',(2.11874623020068E-16,0.,1.));
#1799=DIRECTION('',(1.,0.,0.));
#1800=DIRECTION('',(0.,0.,-1.));
#1801=DIRECTION('',(1.,0.,0.));
#1802=DIRECTION('',(2.11874623020068E-16,0.,1.));
#1803=DIRECTION('',(0.,1.,0.));
#1804=DIRECTION('',(1.,0.,0.));
#1805=DIRECTION('',(3.30423519233678E-16,0.,1.));
#1806=DIRECTION('',(-1.,0.,4.62592926927148E-16));
#1807=DIRECTION('',(6.60847038467355E-16,0.,1.));
#1808=DIRECTION('',(-1.,0.,4.62592926927148E-16));
#1809=DIRECTION('',(0.,0.,1.));
#1810=DIRECTION('',(1.,0.,0.));
#1811=DIRECTION('',(-1.82602471155453E-16,0.,1.));
#1812=DIRECTION('',(1.,0.,-1.28498035257541E-16));
#1813=DIRECTION('',(1.,0.,-2.11874623020068E-16));
#1814=DIRECTION('',(-2.11874623020068E-16,0.,-1.));
#1815=DIRECTION('',(0.,-1.,0.));
#1816=DIRECTION('',(2.11874623020068E-16,0.,1.));
#1817=DIRECTION('',(0.,-1.,0.));
#1818=DIRECTION('',(2.11874623020068E-16,0.,1.));
#1819=DIRECTION('',(0.,1.,0.));
#1820=DIRECTION('',(0.,1.,0.));
#1821=DIRECTION('',(2.11874623020068E-16,0.,1.));
#1822=DIRECTION('',(0.,1.,0.));
#1823=DIRECTION('',(1.,0.,-2.11874623020068E-16));
#1824=DIRECTION('',(-2.11874623020068E-16,0.,-1.));
#1825=DIRECTION('',(2.11874623020068E-16,0.,1.));
#1826=DIRECTION('',(0.,-1.,0.));
#1827=DIRECTION('',(0.,1.,0.));
#1828=DIRECTION('',(2.11874623020068E-16,0.,1.));
#1829=DIRECTION('',(0.,1.,0.));
#1830=DIRECTION('',(0.,1.,0.));
#1831=DIRECTION('',(2.11874623020068E-16,0.,1.));
#1832=DIRECTION('',(0.,-1.,0.));
#1833=DIRECTION('',(0.,0.,1.));
#1834=DIRECTION('',(0.,-1.,0.));
#1835=DIRECTION('',(-1.,0.,0.));
#1836=DIRECTION('',(0.,-1.,0.));
#1837=DIRECTION('',(-1.,0.,0.));
#1838=DIRECTION('',(0.,-1.,0.));
#1839=DIRECTION('',(-1.,0.,0.));
#1840=DIRECTION('',(0.,1.,0.));
#1841=DIRECTION('',(0.,1.,0.));
#1842=DIRECTION('',(0.,0.,1.));
#1843=DIRECTION('',(0.,-1.,0.));
#1844=DIRECTION('',(0.,1.,0.));
#1845=DIRECTION('',(1.,0.,0.));
#1846=DIRECTION('',(1.,0.,7.70988211545247E-16));
#1847=DIRECTION('',(7.70988211545247E-16,0.,-1.));
#1848=DIRECTION('',(7.70988211545247E-16,0.,-1.));
#1849=DIRECTION('',(0.,-1.,0.));
#1850=DIRECTION('',(1.,0.,0.));
#1851=DIRECTION('',(0.,-1.,0.));
#1852=DIRECTION('',(-1.,0.,0.));
#1853=DIRECTION('',(-4.33680868994202E-16,0.,-1.));
#1854=DIRECTION('',(-1.,0.,4.33680868994202E-16));
#1855=DIRECTION('',(0.,1.,0.));
#1856=DIRECTION('',(-1.,0.,4.33680868994202E-16));
#1857=DIRECTION('',(1.,0.,-1.15648231731787E-15));
#1858=DIRECTION('',(-1.15648231731787E-15,0.,-1.));
#1859=DIRECTION('',(0.,1.,0.));
#1860=DIRECTION('',(-1.15648231731787E-15,0.,-1.));
#1861=DIRECTION('',(-8.67361737988403E-16,0.,-1.));
#1862=DIRECTION('',(-1.,0.,8.67361737988403E-16));
#1863=DIRECTION('',(-1.,0.,8.67361737988403E-16));
#1864=DIRECTION('',(0.,-1.,0.));
#1865=DIRECTION('',(1.,0.,0.));
#1866=DIRECTION('',(0.,0.,1.));
#1867=DIRECTION('',(0.,-1.,0.));
#1868=DIRECTION('',(1.,0.,0.));
#1869=DIRECTION('',(0.,1.,0.));
#1870=DIRECTION('',(0.,0.,1.));
#1871=DIRECTION('',(0.,-1.,0.));
#1872=DIRECTION('',(0.,1.,0.));
#1873=DIRECTION('',(1.,0.,0.));
#1874=DIRECTION('',(1.,0.,0.));
#1875=DIRECTION('',(0.,-1.,0.));
#1876=DIRECTION('',(0.,0.,-1.));
#1877=DIRECTION('',(0.,-1.,0.));
#1878=DIRECTION('',(1.,0.,0.));
#1879=DIRECTION('',(-4.33680868994202E-16,0.,-1.));
#1880=DIRECTION('',(-1.,0.,4.33680868994202E-16));
#1881=DIRECTION('',(-1.,0.,4.33680868994202E-16));
#1882=DIRECTION('',(0.,1.,0.));
#1883=DIRECTION('',(1.,0.,0.));
#1884=DIRECTION('',(0.,-1.,0.));
#1885=DIRECTION('',(0.,0.,-1.));
#1886=DIRECTION('',(0.,-1.,0.));
#1887=DIRECTION('',(1.,0.,0.));
#1888=DIRECTION('',(0.,-1.,0.));
#1889=DIRECTION('',(-1.,0.,0.));
#1890=DIRECTION('',(1.,0.,0.));
#1891=DIRECTION('',(0.,-1.,0.));
#1892=DIRECTION('',(0.,-1.,0.));
#1893=DIRECTION('',(0.,0.,1.));
#1894=DIRECTION('',(0.,-1.,0.));
#1895=DIRECTION('',(0.,0.,-1.));
#1896=DIRECTION('',(0.,1.,0.));
#1897=DIRECTION('',(0.,-1.,0.));
#1898=DIRECTION('',(1.,0.,0.));
#1899=DIRECTION('',(1.,0.,3.30423519233678E-16));
#1900=DIRECTION('',(3.30423519233678E-16,0.,-1.));
#1901=DIRECTION('',(0.,-1.,0.));
#1902=DIRECTION('',(-3.30423519233678E-16,0.,1.));
#1903=DIRECTION('',(0.,0.,-1.));
#1904=DIRECTION('',(0.,1.,0.));
#1905=DIRECTION('',(1.,0.,0.));
#1906=DIRECTION('',(0.,-1.,0.));
#1907=DIRECTION('',(1.,0.,0.));
#1908=DIRECTION('',(0.,0.,-1.));
#1909=DIRECTION('',(1.,0.,0.));
#1910=DIRECTION('',(0.,0.,-1.));
#1911=DIRECTION('',(1.,0.,0.));
#1912=DIRECTION('',(1.,0.,-3.30423519233678E-16));
#1913=DIRECTION('',(-3.30423519233678E-16,0.,-1.));
#1914=DIRECTION('',(0.,-1.,0.));
#1915=DIRECTION('',(3.30423519233678E-16,0.,1.));
#1916=DIRECTION('',(0.,-1.,0.));
#1917=DIRECTION('',(4.62592926927148E-16,0.,1.));
#1918=DIRECTION('',(1.,0.,-4.62592926927148E-16));
#1919=DIRECTION('',(0.,-1.,0.));
#1920=DIRECTION('',(-1.,0.,4.62592926927148E-16));
#1921=DIRECTION('',(1.,0.,-6.60847038467355E-16));
#1922=DIRECTION('',(-6.60847038467355E-16,0.,-1.));
#1923=DIRECTION('',(0.,-1.,0.));
#1924=DIRECTION('',(6.60847038467355E-16,0.,1.));
#1925=DIRECTION('',(4.62592926927148E-16,0.,1.));
#1926=DIRECTION('',(1.,0.,-4.62592926927148E-16));
#1927=DIRECTION('',(-1.,0.,4.62592926927148E-16));
#1928=DIRECTION('',(0.,-1.,0.));
#1929=DIRECTION('',(1.,0.,0.));
#1930=DIRECTION('',(-1.,0.,0.));
#1931=DIRECTION('',(-1.73472347597681E-15,0.,-1.));
#1932=DIRECTION('',(-1.,0.,0.));
#1933=DIRECTION('',(-1.73472347597681E-15,0.,-1.));
#1934=DIRECTION('',(1.,0.,-6.39108649044086E-16));
#1935=DIRECTION('',(-6.39108649044086E-16,0.,-1.));
#1936=DIRECTION('',(0.,-1.,0.));
#1937=DIRECTION('',(6.39108649044086E-16,0.,1.));
#1938=DIRECTION('',(0.,-1.,0.));
#1939=DIRECTION('',(2.56996070515082E-16,0.,1.));
#1940=DIRECTION('',(1.,0.,-2.56996070515082E-16));
#1941=DIRECTION('',(0.,-1.,0.));
#1942=DIRECTION('',(-1.,0.,2.56996070515082E-16));
#1943=DIRECTION('',(1.,0.,0.));
#1944=DIRECTION('',(0.,-1.,0.));
#1945=DIRECTION('',(0.,-1.,0.));
#1946=DIRECTION('',(0.,0.,1.));
#1947=DIRECTION('',(5.13992141030165E-16,0.,1.));
#1948=DIRECTION('',(1.,0.,-5.13992141030165E-16));
#1949=DIRECTION('',(-1.,0.,5.13992141030165E-16));
#1950=DIRECTION('',(0.,-1.,0.));
#1951=DIRECTION('',(1.,0.,0.));
#1952=DIRECTION('',(-1.,0.,5.33761069531325E-16));
#1953=DIRECTION('',(0.,0.,1.));
#1954=DIRECTION('',(-1.,0.,5.33761069531325E-16));
#1955=DIRECTION('',(0.,0.,1.));
#1956=DIRECTION('',(1.,0.,0.));
#1957=DIRECTION('',(0.,-1.,0.));
#1958=DIRECTION('',(0.,-1.,0.));
#1959=DIRECTION('',(0.,0.,1.));
#1960=DIRECTION('',(0.,-1.,0.));
#1961=DIRECTION('',(-1.28498035257541E-16,0.,-1.));
#1962=DIRECTION('',(-1.,0.,1.28498035257541E-16));
#1963=DIRECTION('',(0.,-1.,0.));
#1964=DIRECTION('',(1.,0.,-1.28498035257541E-16));
#1965=DIRECTION('',(1.,0.,1.82602471155453E-16));
#1966=DIRECTION('',(1.82602471155453E-16,0.,-1.));
#1967=DIRECTION('',(0.,-1.,0.));
#1968=DIRECTION('',(-1.82602471155453E-16,0.,1.));
#1969=DIRECTION('',(0.,0.,-1.));
#1970=DIRECTION('',(0.,1.,0.));
#1971=DIRECTION('',(1.,0.,0.));
#1972=DIRECTION('',(0.,-1.,0.));
#1973=DIRECTION('',(1.,0.,0.));
#1974=DIRECTION('',(1.,0.,0.));
#1975=DIRECTION('',(0.,0.,1.));
#1976=DIRECTION('',(1.,0.,0.));
#1977=DIRECTION('',(0.,0.,1.));
#1978=DIRECTION('',(0.,-1.,0.));
#1979=DIRECTION('',(1.,0.,0.));
#1980=DIRECTION('',(1.,0.,0.));
#1981=DIRECTION('',(0.,0.,-1.));
#1982=DIRECTION('',(1.,0.,0.));
#1983=DIRECTION('',(0.,0.,-1.));
#1984=DIRECTION('',(0.,0.,1.));
#1985=DIRECTION('',(0.,-1.,0.));
#1986=DIRECTION('',(0.,1.,0.));
#1987=DIRECTION('',(0.,1.,0.));
#1988=DIRECTION('',(1.,0.,0.));
#1989=DIRECTION('',(0.,-1.,0.));
#1990=DIRECTION('',(0.,1.,0.));
#1991=DIRECTION('',(0.,0.,1.));
#1992=DIRECTION('',(0.,-1.,0.));
#1993=DIRECTION('',(0.,1.,0.));
#1994=DIRECTION('',(1.,0.,0.));
#1995=DIRECTION('',(0.,-1.,0.));
#1996=DIRECTION('',(0.,-1.,0.));
#1997=DIRECTION('',(1.,0.,0.));
#1998=DIRECTION('',(-1.73472347597681E-15,0.,-1.));
#1999=DIRECTION('',(-1.,0.,0.));
#2000=DIRECTION('',(-1.73472347597681E-15,0.,-1.));
#2001=DIRECTION('',(-1.,0.,0.));
#2002=DIRECTION('',(1.,0.,-1.73472347597681E-15));
#2003=DIRECTION('',(-1.73472347597681E-15,0.,-1.));
#2004=DIRECTION('',(0.,1.,0.));
#2005=DIRECTION('',(0.,1.,0.));
#2006=DIRECTION('',(0.,0.,-1.));
#2007=DIRECTION('',(0.,1.,0.));
#2008=DIRECTION('',(0.,1.,0.));
#2009=DIRECTION('',(1.,0.,-1.73472347597681E-15));
#2010=DIRECTION('',(-1.73472347597681E-15,0.,-1.));
#2011=DIRECTION('',(0.,1.,0.));
#2012=DIRECTION('',(0.,0.,-1.));
#2013=DIRECTION('',(0.,1.,0.));
#2014=DIRECTION('',(0.,-1.,0.));
#2015=DIRECTION('',(1.,0.,0.));
#2016=DIRECTION('',(0.,0.,1.));
#2017=DIRECTION('',(-1.,0.,5.33761069531325E-16));
#2018=DIRECTION('',(0.,0.,1.));
#2019=DIRECTION('',(-1.,0.,5.33761069531325E-16));
#2020=DIRECTION('',(-1.,0.,0.));
#2021=DIRECTION('',(0.,1.,0.));
#2022=DIRECTION('',(0.,1.,0.));
#2023=DIRECTION('',(0.,1.,0.));
#2024=DIRECTION('',(-5.33761069531325E-16,0.,-1.));
#2025=DIRECTION('',(-1.,0.,5.33761069531325E-16));
#2026=DIRECTION('',(0.,1.,0.));
#2027=DIRECTION('',(-1.,0.,0.));
#2028=DIRECTION('',(0.,1.,0.));
#2029=DIRECTION('',(0.,1.,0.));
#2030=DIRECTION('',(-5.33761069531325E-16,0.,-1.));
#2031=DIRECTION('',(-1.,0.,5.33761069531325E-16));
#2032=DIRECTION('',(0.,-1.,0.));
#2033=DIRECTION('',(1.,0.,0.));
#2034=DIRECTION('',(0.,0.,1.));
#2035=DIRECTION('',(1.,0.,0.));
#2036=DIRECTION('',(0.,0.,1.));
#2037=DIRECTION('',(1.,0.,0.));
#2038=DIRECTION('',(-1.,0.,0.));
#2039=DIRECTION('',(0.,1.,0.));
#2040=DIRECTION('',(0.,1.,0.));
#2041=DIRECTION('',(0.,1.,0.));
#2042=DIRECTION('',(0.,0.,1.));
#2043=DIRECTION('',(0.,-1.,0.));
#2044=DIRECTION('',(0.,1.,0.));
#2045=DIRECTION('',(-1.,0.,0.));
#2046=DIRECTION('',(0.,1.,0.));
#2047=DIRECTION('',(0.,1.,0.));
#2048=DIRECTION('',(0.,0.,1.));
#2049=DIRECTION('',(0.,-1.,0.));
#2050=DIRECTION('',(-1.,-1.14997006251253E-16,-1.14997006251253E-16));
#2051=DIRECTION('',(-1.14997006251253E-16,1.,0.));
#2052=DIRECTION('',(-1.,-1.14997006251253E-16,-1.14997006251253E-16));
#2053=DIRECTION('',(-1.14997006251253E-16,1.,0.));
#2054=DIRECTION('',(-1.62630325872825E-16,0.707106781186548,0.707106781186548));
#2055=DIRECTION('',(-1.,-1.14997006251253E-16,-1.14997006251253E-16));
#2056=DIRECTION('',(-1.14997006251253E-16,1.,0.));
#2057=DIRECTION('',(-1.,-1.14997006251253E-16,-1.14997006251253E-16));
#2058=DIRECTION('',(-1.14997006251253E-16,1.,0.));
#2059=DIRECTION('',(-1.62630325872825E-16,0.707106781186548,0.707106781186548));
#2060=DIRECTION('',(0.,-0.707106781186548,0.707106781186548));
#2061=DIRECTION('',(1.,0.,0.));
#2062=DIRECTION('',(1.,0.,0.));
#2063=DIRECTION('',(0.,-1.,0.));
#2064=DIRECTION('',(1.,0.,0.));
#2065=DIRECTION('',(0.,-1.,0.));
#2066=DIRECTION('',(0.,1.,0.));
#2067=DIRECTION('',(1.,0.,0.));
#2068=DIRECTION('',(0.,1.,0.));
#2069=DIRECTION('',(1.,0.,0.));
#2070=DIRECTION('',(0.,0.,-1.));
#2071=DIRECTION('',(0.,1.,0.));
#2072=DIRECTION('',(0.,0.,-1.));
#2073=DIRECTION('',(0.,1.,0.));
#2074=DIRECTION('',(2.11874623020068E-16,0.,1.));
#2075=DIRECTION('',(1.,0.,-2.11874623020068E-16));
#2076=DIRECTION('',(0.,0.,1.));
#2077=DIRECTION('',(0.,-1.,0.));
#2078=DIRECTION('',(0.,-1.,0.));
#2079=DIRECTION('',(-1.,0.,0.));
#2080=DIRECTION('',(0.,1.,0.));
#2081=DIRECTION('',(1.,0.,0.));
#2082=DIRECTION('',(1.,0.,0.));
#2083=DIRECTION('',(0.,-1.,0.));
#2084=DIRECTION('',(1.,0.,0.));
#2085=DIRECTION('',(0.,-1.,0.));
#2086=DIRECTION('',(-1.,0.,0.));
#2087=DIRECTION('',(0.,1.,0.));
#2088=DIRECTION('',(-1.,0.,0.));
#2089=DIRECTION('',(0.,1.,0.));
#2090=DIRECTION('',(0.,1.,0.));
#2091=DIRECTION('',(1.,0.,0.));
#2092=DIRECTION('',(0.,1.,0.));
#2093=DIRECTION('',(1.,0.,0.));
#2094=DIRECTION('',(0.,0.,1.));
#2095=DIRECTION('',(0.,-1.,0.));
#2096=DIRECTION('',(0.,0.,1.));
#2097=DIRECTION('',(0.,-1.,0.));
#2098=DIRECTION('',(-2.11874623020068E-16,0.,-1.));
#2099=DIRECTION('',(-1.,0.,2.11874623020068E-16));
#2100=DIRECTION('',(0.,0.,-1.));
#2101=DIRECTION('',(0.,1.,0.));
#2102=DIRECTION('',(0.,-1.,0.));
#2103=DIRECTION('',(-1.,0.,0.));
#2104=DIRECTION('',(0.,1.,0.));
#2105=DIRECTION('',(1.,0.,0.));
#2106=DIRECTION('',(-1.,0.,0.));
#2107=DIRECTION('',(0.,1.,0.));
#2108=DIRECTION('',(-1.,0.,0.));
#2109=DIRECTION('',(0.,1.,0.));
#2110=DIRECTION('',(1.,0.,0.));
#2111=DIRECTION('',(0.,-1.,0.));
#2112=CARTESIAN_POINT('',(0.,0.,0.));
#2113=CARTESIAN_POINT('',(-3.46944695195361E-18,0.04,-0.016375));
#2114=CARTESIAN_POINT('',(0.0015,0.04,-0.016375));
#2115=CARTESIAN_POINT('',(0.0015,0.039,-0.016375));
#2116=CARTESIAN_POINT('',(0.0015,0.038161522368915,-0.016375));
#2117=CARTESIAN_POINT('',(0.019,0.039,-0.016375));
#2118=CARTESIAN_POINT('',(0.018,0.039,-0.016375));
#2119=CARTESIAN_POINT('',(0.018,0.,-0.016375));
#2120=CARTESIAN_POINT('',(0.018,0.,-0.016375));
#2121=CARTESIAN_POINT('',(-3.46944695195361E-18,0.,-0.016375));
#2122=CARTESIAN_POINT('',(-0.018,0.,-0.016375));
#2123=CARTESIAN_POINT('',(-0.018,0.04,-0.016375));
#2124=CARTESIAN_POINT('',(-0.018,0.039,-0.016375));
#2125=CARTESIAN_POINT('',(-0.0015,0.039,-0.016375));
#2126=CARTESIAN_POINT('',(-0.0015,0.039,-0.016375));
#2127=CARTESIAN_POINT('',(-0.0015,0.04,-0.016375));
#2128=CARTESIAN_POINT('',(-0.0015,0.038161522368915,-0.016375));
#2129=CARTESIAN_POINT('',(-3.46944695195361E-18,0.038161522368915,-0.016375));
#2130=CARTESIAN_POINT('',(0.,0.04,0.));
#2131=CARTESIAN_POINT('',(-0.0015,0.04,-1.72495509376879E-19));
#2132=CARTESIAN_POINT('',(-0.0015,0.04,-0.015375));
#2133=CARTESIAN_POINT('',(-0.0015,0.04,-0.014536522368915));
#2134=CARTESIAN_POINT('',(-0.019,0.04,-0.015375));
#2135=CARTESIAN_POINT('',(-0.018,0.04,-0.015375));
#2136=CARTESIAN_POINT('',(-0.018,0.04,0.016375));
#2137=CARTESIAN_POINT('',(-0.018,0.04,0.015375));
#2138=CARTESIAN_POINT('',(0.,0.04,0.015375));
#2139=CARTESIAN_POINT('',(0.018,0.04,0.015375));
#2140=CARTESIAN_POINT('',(0.018,0.04,-3.81374321436122E-18));
#2141=CARTESIAN_POINT('',(0.018,0.04,-0.015375));
#2142=CARTESIAN_POINT('',(0.0015,0.04,-0.015375));
#2143=CARTESIAN_POINT('',(0.0015,0.04,-0.015375));
#2144=CARTESIAN_POINT('',(0.0015,0.04,1.72495509376879E-19));
#2145=CARTESIAN_POINT('',(0.0015,0.04,-0.014536522368915));
#2146=CARTESIAN_POINT('',(0.,0.04,-0.014536522368915));
#2147=CARTESIAN_POINT('',(0.,0.,0.));
#2148=CARTESIAN_POINT('',(0.003375,0.,-0.01325));
#2149=CARTESIAN_POINT('',(0.003375,0.,-0.015625));
#2150=CARTESIAN_POINT('',(0.003375,0.,-0.010875));
#2151=CARTESIAN_POINT('',(0.010125,0.,-0.010875));
#2152=CARTESIAN_POINT('',(0.016875,0.,-0.010875));
#2153=CARTESIAN_POINT('',(0.016875,0.,-0.01325));
#2154=CARTESIAN_POINT('',(0.016875,0.,-0.015625));
#2155=CARTESIAN_POINT('',(0.010125,0.,-0.015625));
#2156=CARTESIAN_POINT('',(-0.017975,0.,0.010125));
#2157=CARTESIAN_POINT('',(-0.017975,0.,0.0075));
#2158=CARTESIAN_POINT('',(-0.017975,0.,0.01275));
#2159=CARTESIAN_POINT('',(-0.0161,0.,0.01275));
#2160=CARTESIAN_POINT('',(-0.014225,0.,0.01275));
#2161=CARTESIAN_POINT('',(-0.014225,0.,0.010125));
#2162=CARTESIAN_POINT('',(-0.014225,0.,0.0075));
#2163=CARTESIAN_POINT('',(-0.0161,0.,0.0075));
#2164=CARTESIAN_POINT('',(0.018,0.,-0.015375));
#2165=CARTESIAN_POINT('',(0.019,0.,-0.015375));
#2166=CARTESIAN_POINT('',(0.019,0.,0.));
#2167=CARTESIAN_POINT('',(0.019,0.,-0.010125));
#2168=CARTESIAN_POINT('',(0.018,0.,-0.010125));
#2169=CARTESIAN_POINT('',(0.017,0.,-0.010125));
#2170=CARTESIAN_POINT('',(0.017,0.,-0.008625));
#2171=CARTESIAN_POINT('',(0.017,0.,-0.007125));
#2172=CARTESIAN_POINT('',(0.018,0.,-0.007125));
#2173=CARTESIAN_POINT('',(0.019,0.,-0.007125));
#2174=CARTESIAN_POINT('',(0.019,0.,0.));
#2175=CARTESIAN_POINT('',(0.019,0.,0.014125));
#2176=CARTESIAN_POINT('',(0.017,0.,0.014125));
#2177=CARTESIAN_POINT('',(0.015,0.,0.014125));
#2178=CARTESIAN_POINT('',(0.015,0.,0.01525));
#2179=CARTESIAN_POINT('',(0.015,0.,0.016375));
#2180=CARTESIAN_POINT('',(3.46944695195361E-18,0.,0.016375));
#2181=CARTESIAN_POINT('',(-0.015,0.,0.016375));
#2182=CARTESIAN_POINT('',(-0.015,0.,0.01525));
#2183=CARTESIAN_POINT('',(-0.015,0.,0.014125));
#2184=CARTESIAN_POINT('',(-0.017,0.,0.014125));
#2185=CARTESIAN_POINT('',(-0.019,0.,0.014125));
#2186=CARTESIAN_POINT('',(-0.019,0.,0.));
#2187=CARTESIAN_POINT('',(-0.019,0.,-0.007125));
#2188=CARTESIAN_POINT('',(-0.018,0.,-0.007125));
#2189=CARTESIAN_POINT('',(-0.017,0.,-0.007125));
#2190=CARTESIAN_POINT('',(-0.017,0.,-0.008625));
#2191=CARTESIAN_POINT('',(-0.017,0.,-0.010125));
#2192=CARTESIAN_POINT('',(-0.018,0.,-0.010125));
#2193=CARTESIAN_POINT('',(-0.019,0.,-0.010125));
#2194=CARTESIAN_POINT('',(-0.019,0.,0.));
#2195=CARTESIAN_POINT('',(-0.019,0.,-0.015375));
#2196=CARTESIAN_POINT('',(-0.018,0.,-0.015375));
#2197=CARTESIAN_POINT('',(0.014225,0.,0.010125));
#2198=CARTESIAN_POINT('',(0.014225,0.,0.0075));
#2199=CARTESIAN_POINT('',(0.014225,0.,0.01275));
#2200=CARTESIAN_POINT('',(0.0161,0.,0.01275));
#2201=CARTESIAN_POINT('',(0.017975,0.,0.01275));
#2202=CARTESIAN_POINT('',(0.017975,0.,0.010125));
#2203=CARTESIAN_POINT('',(0.017975,0.,0.0075));
#2204=CARTESIAN_POINT('',(0.0161,0.,0.0075));
#2205=CARTESIAN_POINT('',(-0.016875,0.,-0.01325));
#2206=CARTESIAN_POINT('',(-0.016875,0.,-0.015625));
#2207=CARTESIAN_POINT('',(-0.016875,0.,-0.010875));
#2208=CARTESIAN_POINT('',(-0.010125,0.,-0.010875));
#2209=CARTESIAN_POINT('',(-0.003375,0.,-0.010875));
#2210=CARTESIAN_POINT('',(-0.003375,0.,-0.01325));
#2211=CARTESIAN_POINT('',(-0.003375,0.,-0.015625));
#2212=CARTESIAN_POINT('',(-0.010125,0.,-0.015625));
#2213=CARTESIAN_POINT('',(0.019,0.04,0.));
#2214=CARTESIAN_POINT('',(0.019,0.04,-0.015375));
#2215=CARTESIAN_POINT('',(0.019,0.039,-0.015375));
#2216=CARTESIAN_POINT('',(0.019,0.039,0.));
#2217=CARTESIAN_POINT('',(0.019,0.039,0.015375));
#2218=CARTESIAN_POINT('',(0.019,0.04,0.015375));
#2219=CARTESIAN_POINT('',(0.019,-0.003,0.015375));
#2220=CARTESIAN_POINT('',(0.019,-0.003,0.));
#2221=CARTESIAN_POINT('',(0.019,-0.003,0.014125));
#2222=CARTESIAN_POINT('',(0.019,-0.003,0.014125));
#2223=CARTESIAN_POINT('',(0.019,-0.003,-0.007125));
#2224=CARTESIAN_POINT('',(0.019,-0.003,-0.007125));
#2225=CARTESIAN_POINT('',(0.019,-0.003,0.));
#2226=CARTESIAN_POINT('',(0.019,-0.003,-0.010125));
#2227=CARTESIAN_POINT('',(0.019,-0.003,-0.010125));
#2228=CARTESIAN_POINT('',(-0.019,0.04,0.));
#2229=CARTESIAN_POINT('',(-0.019,0.039,-0.016375));
#2230=CARTESIAN_POINT('',(-0.019,0.039,0.015375));
#2231=CARTESIAN_POINT('',(-0.019,0.039,-0.015375));
#2232=CARTESIAN_POINT('',(-0.019,0.04,-0.015375));
#2233=CARTESIAN_POINT('',(-0.019,-0.003,-0.010125));
#2234=CARTESIAN_POINT('',(-0.019,-0.003,-0.010125));
#2235=CARTESIAN_POINT('',(-0.019,-0.003,0.));
#2236=CARTESIAN_POINT('',(-0.019,-0.003,-0.007125));
#2237=CARTESIAN_POINT('',(-0.019,-0.003,-0.007125));
#2238=CARTESIAN_POINT('',(-0.019,-0.003,0.014125));
#2239=CARTESIAN_POINT('',(-0.019,-0.003,0.014125));
#2240=CARTESIAN_POINT('',(-0.019,-0.003,0.));
#2241=CARTESIAN_POINT('',(-0.019,-0.003,0.015375));
#2242=CARTESIAN_POINT('',(-0.019,0.04,0.015375));
#2243=CARTESIAN_POINT('',(3.46944695195361E-18,0.04,0.016375));
#2244=CARTESIAN_POINT('',(3.46944695195361E-18,-0.003,0.016375));
#2245=CARTESIAN_POINT('',(0.018,-0.003,0.016375));
#2246=CARTESIAN_POINT('',(0.015,-0.003,0.016375));
#2247=CARTESIAN_POINT('',(0.018,0.04,0.016375));
#2248=CARTESIAN_POINT('',(0.018,0.039,0.016375));
#2249=CARTESIAN_POINT('',(3.46944695195361E-18,0.039,0.016375));
#2250=CARTESIAN_POINT('',(-0.018,0.039,0.016375));
#2251=CARTESIAN_POINT('',(-0.018,-0.003,0.016375));
#2252=CARTESIAN_POINT('',(-0.018,-0.003,0.016375));
#2253=CARTESIAN_POINT('',(3.46944695195361E-18,-0.003,0.016375));
#2254=CARTESIAN_POINT('',(-0.015,-0.003,0.016375));
#2255=CARTESIAN_POINT('',(-0.015,-0.003,0.016375));
#2256=CARTESIAN_POINT('',(0.015,-0.003,0.016375));
#2257=CARTESIAN_POINT('',(-0.017,-0.003,0.014125));
#2258=CARTESIAN_POINT('',(-0.015,-0.003,0.014125));
#2259=CARTESIAN_POINT('',(-0.015,-0.003,0.014125));
#2260=CARTESIAN_POINT('',(-0.017,-0.003,0.014125));
#2261=CARTESIAN_POINT('',(-0.015,-0.003,0.01525));
#2262=CARTESIAN_POINT('',(-0.015,-0.003,0.01525));
#2263=CARTESIAN_POINT('',(0.,-0.003,0.));
#2264=CARTESIAN_POINT('',(-0.018,-0.003,0.015375));
#2265=CARTESIAN_POINT('',(0.018,-0.003,-0.007125));
#2266=CARTESIAN_POINT('',(0.017,-0.003,-0.007125));
#2267=CARTESIAN_POINT('',(0.017,-0.003,-0.007125));
#2268=CARTESIAN_POINT('',(0.018,-0.003,-0.007125));
#2269=CARTESIAN_POINT('',(0.017,-0.003,-0.008625));
#2270=CARTESIAN_POINT('',(0.017,-0.003,-0.010125));
#2271=CARTESIAN_POINT('',(0.017,-0.003,-0.010125));
#2272=CARTESIAN_POINT('',(0.017,-0.003,-0.008625));
#2273=CARTESIAN_POINT('',(0.018,-0.003,-0.010125));
#2274=CARTESIAN_POINT('',(0.018,-0.003,-0.010125));
#2275=CARTESIAN_POINT('',(0.,-0.003,0.));
#2276=CARTESIAN_POINT('',(-0.018,-0.003,-0.007125));
#2277=CARTESIAN_POINT('',(-0.018,-0.003,-0.007125));
#2278=CARTESIAN_POINT('',(-0.017,-0.003,-0.007125));
#2279=CARTESIAN_POINT('',(-0.017,-0.003,-0.007125));
#2280=CARTESIAN_POINT('',(-0.018,-0.003,-0.010125));
#2281=CARTESIAN_POINT('',(-0.017,-0.003,-0.010125));
#2282=CARTESIAN_POINT('',(-0.017,-0.003,-0.010125));
#2283=CARTESIAN_POINT('',(-0.018,-0.003,-0.010125));
#2284=CARTESIAN_POINT('',(-0.017,-0.003,-0.008625));
#2285=CARTESIAN_POINT('',(-0.017,-0.003,-0.008625));
#2286=CARTESIAN_POINT('',(0.,-0.003,0.));
#2287=CARTESIAN_POINT('',(0.017,-0.003,0.014125));
#2288=CARTESIAN_POINT('',(0.017,-0.003,0.014125));
#2289=CARTESIAN_POINT('',(0.015,-0.003,0.014125));
#2290=CARTESIAN_POINT('',(0.015,-0.003,0.014125));
#2291=CARTESIAN_POINT('',(0.015,-0.003,0.01525));
#2292=CARTESIAN_POINT('',(0.015,-0.003,0.01525));
#2293=CARTESIAN_POINT('',(0.,-0.003,0.));
#2294=CARTESIAN_POINT('',(0.018,-0.003,0.015375));
#2295=CARTESIAN_POINT('',(-0.017975,0.0001,0.010125));
#2296=CARTESIAN_POINT('',(-0.017975,0.0001,0.0075));
#2297=CARTESIAN_POINT('',(-0.017975,0.0001,0.0075));
#2298=CARTESIAN_POINT('',(-0.017975,0.0001,0.010125));
#2299=CARTESIAN_POINT('',(-0.017975,0.0001,0.01275));
#2300=CARTESIAN_POINT('',(-0.017975,0.0001,0.01275));
#2301=CARTESIAN_POINT('',(-0.0161,0.0001,0.0075));
#2302=CARTESIAN_POINT('',(-0.014225,0.0001,0.0075));
#2303=CARTESIAN_POINT('',(-0.014225,0.0001,0.0075));
#2304=CARTESIAN_POINT('',(-0.0161,0.0001,0.0075));
#2305=CARTESIAN_POINT('',(-0.014225,0.0001,0.010125));
#2306=CARTESIAN_POINT('',(-0.014225,0.0001,0.01275));
#2307=CARTESIAN_POINT('',(-0.014225,0.0001,0.01275));
#2308=CARTESIAN_POINT('',(-0.014225,0.0001,0.010125));
#2309=CARTESIAN_POINT('',(-0.0161,0.0001,0.01275));
#2310=CARTESIAN_POINT('',(-0.0161,0.0001,0.01275));
#2311=CARTESIAN_POINT('',(0.,0.0001,0.));
#2312=CARTESIAN_POINT('',(-0.0165,0.0001,0.010125));
#2313=CARTESIAN_POINT('',(-0.0165,0.0001,0.011125));
#2314=CARTESIAN_POINT('',(-0.0165,0.0001,0.009125));
#2315=CARTESIAN_POINT('',(-0.0161,0.0001,0.011125));
#2316=CARTESIAN_POINT('',(-0.0157,0.0001,0.011125));
#2317=CARTESIAN_POINT('',(-0.0157,0.0001,0.010125));
#2318=CARTESIAN_POINT('',(-0.0157,0.0001,0.009125));
#2319=CARTESIAN_POINT('',(-0.0161,0.0001,0.009125));
#2320=CARTESIAN_POINT('',(0.014225,0.0001,0.010125));
#2321=CARTESIAN_POINT('',(0.014225,0.0001,0.0075));
#2322=CARTESIAN_POINT('',(0.014225,0.0001,0.0075));
#2323=CARTESIAN_POINT('',(0.014225,0.0001,0.010125));
#2324=CARTESIAN_POINT('',(0.014225,0.0001,0.01275));
#2325=CARTESIAN_POINT('',(0.014225,0.0001,0.01275));
#2326=CARTESIAN_POINT('',(0.0161,0.0001,0.0075));
#2327=CARTESIAN_POINT('',(0.017975,0.0001,0.0075));
#2328=CARTESIAN_POINT('',(0.017975,0.0001,0.0075));
#2329=CARTESIAN_POINT('',(0.0161,0.0001,0.0075));
#2330=CARTESIAN_POINT('',(0.017975,0.0001,0.010125));
#2331=CARTESIAN_POINT('',(0.017975,0.0001,0.01275));
#2332=CARTESIAN_POINT('',(0.017975,0.0001,0.01275));
#2333=CARTESIAN_POINT('',(0.017975,0.0001,0.010125));
#2334=CARTESIAN_POINT('',(0.0161,0.0001,0.01275));
#2335=CARTESIAN_POINT('',(0.0161,0.0001,0.01275));
#2336=CARTESIAN_POINT('',(0.,0.0001,0.));
#2337=CARTESIAN_POINT('',(0.0161,0.0001,0.011125));
#2338=CARTESIAN_POINT('',(0.0165,0.0001,0.011125));
#2339=CARTESIAN_POINT('',(0.0157,0.0001,0.011125));
#2340=CARTESIAN_POINT('',(0.0165,0.0001,0.010125));
#2341=CARTESIAN_POINT('',(0.0165,0.0001,0.009125));
#2342=CARTESIAN_POINT('',(0.0161,0.0001,0.009125));
#2343=CARTESIAN_POINT('',(0.0157,0.0001,0.009125));
#2344=CARTESIAN_POINT('',(0.0157,0.0001,0.010125));
#2345=CARTESIAN_POINT('',(0.003375,0.0001,-0.01325));
#2346=CARTESIAN_POINT('',(0.003375,0.0001,-0.015625));
#2347=CARTESIAN_POINT('',(0.003375,0.0001,-0.015625));
#2348=CARTESIAN_POINT('',(0.003375,0.0001,-0.01325));
#2349=CARTESIAN_POINT('',(0.003375,0.0001,-0.010875));
#2350=CARTESIAN_POINT('',(0.003375,0.0001,-0.010875));
#2351=CARTESIAN_POINT('',(0.010125,0.0001,-0.015625));
#2352=CARTESIAN_POINT('',(0.016875,0.0001,-0.015625));
#2353=CARTESIAN_POINT('',(0.016875,0.0001,-0.015625));
#2354=CARTESIAN_POINT('',(0.010125,0.0001,-0.015625));
#2355=CARTESIAN_POINT('',(0.016875,0.0001,-0.01325));
#2356=CARTESIAN_POINT('',(0.016875,0.0001,-0.010875));
#2357=CARTESIAN_POINT('',(0.016875,0.0001,-0.010875));
#2358=CARTESIAN_POINT('',(0.016875,0.0001,-0.01325));
#2359=CARTESIAN_POINT('',(0.010125,0.0001,-0.010875));
#2360=CARTESIAN_POINT('',(0.010125,0.0001,-0.010875));
#2361=CARTESIAN_POINT('',(0.,0.0001,0.));
#2362=CARTESIAN_POINT('',(0.010125,0.0001,-0.013875));
#2363=CARTESIAN_POINT('',(0.015,0.0001,-0.013875));
#2364=CARTESIAN_POINT('',(0.00525,0.0001,-0.013875));
#2365=CARTESIAN_POINT('',(0.00525,0.0001,-0.01325));
#2366=CARTESIAN_POINT('',(0.00525,0.0001,-0.012625));
#2367=CARTESIAN_POINT('',(0.010125,0.0001,-0.012625));
#2368=CARTESIAN_POINT('',(0.015,0.0001,-0.012625));
#2369=CARTESIAN_POINT('',(0.015,0.0001,-0.01325));
#2370=CARTESIAN_POINT('',(-0.016875,0.0001,-0.01325));
#2371=CARTESIAN_POINT('',(-0.016875,0.0001,-0.015625));
#2372=CARTESIAN_POINT('',(-0.016875,0.0001,-0.015625));
#2373=CARTESIAN_POINT('',(-0.016875,0.0001,-0.01325));
#2374=CARTESIAN_POINT('',(-0.016875,0.0001,-0.010875));
#2375=CARTESIAN_POINT('',(-0.016875,0.0001,-0.010875));
#2376=CARTESIAN_POINT('',(-0.010125,0.0001,-0.015625));
#2377=CARTESIAN_POINT('',(-0.003375,0.0001,-0.015625));
#2378=CARTESIAN_POINT('',(-0.003375,0.0001,-0.015625));
#2379=CARTESIAN_POINT('',(-0.010125,0.0001,-0.015625));
#2380=CARTESIAN_POINT('',(-0.003375,0.0001,-0.01325));
#2381=CARTESIAN_POINT('',(-0.003375,0.0001,-0.010875));
#2382=CARTESIAN_POINT('',(-0.003375,0.0001,-0.010875));
#2383=CARTESIAN_POINT('',(-0.003375,0.0001,-0.01325));
#2384=CARTESIAN_POINT('',(-0.010125,0.0001,-0.010875));
#2385=CARTESIAN_POINT('',(-0.010125,0.0001,-0.010875));
#2386=CARTESIAN_POINT('',(0.,0.0001,0.));
#2387=CARTESIAN_POINT('',(-0.010125,0.0001,-0.013875));
#2388=CARTESIAN_POINT('',(-0.015,0.0001,-0.013875));
#2389=CARTESIAN_POINT('',(-0.00525,0.0001,-0.013875));
#2390=CARTESIAN_POINT('',(-0.015,0.0001,-0.01325));
#2391=CARTESIAN_POINT('',(-0.015,0.0001,-0.012625));
#2392=CARTESIAN_POINT('',(-0.010125,0.0001,-0.012625));
#2393=CARTESIAN_POINT('',(-0.00525,0.0001,-0.012625));
#2394=CARTESIAN_POINT('',(-0.00525,0.0001,-0.01325));
#2395=CARTESIAN_POINT('',(0.,-0.007,0.));
#2396=CARTESIAN_POINT('',(-0.0161,-0.007,0.011125));
#2397=CARTESIAN_POINT('',(-0.0165,-0.007,0.011125));
#2398=CARTESIAN_POINT('',(-0.0157,-0.007,0.011125));
#2399=CARTESIAN_POINT('',(-0.0165,-0.007,0.010125));
#2400=CARTESIAN_POINT('',(-0.0165,-0.007,0.009125));
#2401=CARTESIAN_POINT('',(-0.0161,-0.007,0.009125));
#2402=CARTESIAN_POINT('',(-0.0157,-0.007,0.009125));
#2403=CARTESIAN_POINT('',(-0.0157,-0.007,0.010125));
#2404=CARTESIAN_POINT('',(-0.0161,-0.007,0.009125));
#2405=CARTESIAN_POINT('',(-0.0165,-0.007,0.009125));
#2406=CARTESIAN_POINT('',(-0.0157,-0.007,0.009125));
#2407=CARTESIAN_POINT('',(-0.0157,-0.007,0.010125));
#2408=CARTESIAN_POINT('',(-0.0157,-0.007,0.011125));
#2409=CARTESIAN_POINT('',(-0.0161,-0.007,0.011125));
#2410=CARTESIAN_POINT('',(-0.0165,-0.007,0.011125));
#2411=CARTESIAN_POINT('',(-0.0165,-0.007,0.010125));
#2412=CARTESIAN_POINT('',(0.,-0.007,0.));
#2413=CARTESIAN_POINT('',(0.0165,-0.007,0.010125));
#2414=CARTESIAN_POINT('',(0.0165,-0.007,0.011125));
#2415=CARTESIAN_POINT('',(0.0165,-0.007,0.009125));
#2416=CARTESIAN_POINT('',(0.0161,-0.007,0.011125));
#2417=CARTESIAN_POINT('',(0.0157,-0.007,0.011125));
#2418=CARTESIAN_POINT('',(0.0157,-0.007,0.010125));
#2419=CARTESIAN_POINT('',(0.0157,-0.007,0.009125));
#2420=CARTESIAN_POINT('',(0.0161,-0.007,0.009125));
#2421=CARTESIAN_POINT('',(0.0157,-0.007,0.010125));
#2422=CARTESIAN_POINT('',(0.0157,-0.007,0.011125));
#2423=CARTESIAN_POINT('',(0.0157,-0.007,0.009125));
#2424=CARTESIAN_POINT('',(0.0161,-0.007,0.009125));
#2425=CARTESIAN_POINT('',(0.0165,-0.007,0.009125));
#2426=CARTESIAN_POINT('',(0.0165,-0.007,0.010125));
#2427=CARTESIAN_POINT('',(0.0165,-0.007,0.011125));
#2428=CARTESIAN_POINT('',(0.0161,-0.007,0.011125));
#2429=CARTESIAN_POINT('',(0.,-0.007,0.));
#2430=CARTESIAN_POINT('',(0.00525,-0.007,-0.01325));
#2431=CARTESIAN_POINT('',(0.00525,-0.007,-0.013875));
#2432=CARTESIAN_POINT('',(0.00525,-0.007,-0.012625));
#2433=CARTESIAN_POINT('',(0.010125,-0.007,-0.013875));
#2434=CARTESIAN_POINT('',(0.015,-0.007,-0.013875));
#2435=CARTESIAN_POINT('',(0.015,-0.007,-0.01325));
#2436=CARTESIAN_POINT('',(0.015,-0.007,-0.012625));
#2437=CARTESIAN_POINT('',(0.010125,-0.007,-0.012625));
#2438=CARTESIAN_POINT('',(0.015,-0.007,-0.01325));
#2439=CARTESIAN_POINT('',(0.015,-0.007,-0.013875));
#2440=CARTESIAN_POINT('',(0.015,-0.007,-0.012625));
#2441=CARTESIAN_POINT('',(0.010125,-0.007,-0.012625));
#2442=CARTESIAN_POINT('',(0.00525,-0.007,-0.012625));
#2443=CARTESIAN_POINT('',(0.00525,-0.007,-0.01325));
#2444=CARTESIAN_POINT('',(0.00525,-0.007,-0.013875));
#2445=CARTESIAN_POINT('',(0.010125,-0.007,-0.013875));
#2446=CARTESIAN_POINT('',(0.,-0.007,0.));
#2447=CARTESIAN_POINT('',(-0.015,-0.007,-0.01325));
#2448=CARTESIAN_POINT('',(-0.015,-0.007,-0.013875));
#2449=CARTESIAN_POINT('',(-0.015,-0.007,-0.012625));
#2450=CARTESIAN_POINT('',(-0.010125,-0.007,-0.013875));
#2451=CARTESIAN_POINT('',(-0.00525,-0.007,-0.013875));
#2452=CARTESIAN_POINT('',(-0.00525,-0.007,-0.01325));
#2453=CARTESIAN_POINT('',(-0.00525,-0.007,-0.012625));
#2454=CARTESIAN_POINT('',(-0.010125,-0.007,-0.012625));
#2455=CARTESIAN_POINT('',(-0.00525,-0.007,-0.01325));
#2456=CARTESIAN_POINT('',(-0.00525,-0.007,-0.013875));
#2457=CARTESIAN_POINT('',(-0.00525,-0.007,-0.012625));
#2458=CARTESIAN_POINT('',(-0.010125,-0.007,-0.012625));
#2459=CARTESIAN_POINT('',(-0.015,-0.007,-0.012625));
#2460=CARTESIAN_POINT('',(-0.015,-0.007,-0.01325));
#2461=CARTESIAN_POINT('',(-0.015,-0.007,-0.013875));
#2462=CARTESIAN_POINT('',(-0.010125,-0.007,-0.013875));
#2463=CARTESIAN_POINT('',(0.0015,0.0390807611844575,-0.0154557611844575));
#2464=CARTESIAN_POINT('',(0.0015,0.039,-0.015375));
#2465=CARTESIAN_POINT('',(0.0015,0.0390807611844575,-0.0154557611844575));
#2466=CARTESIAN_POINT('',(-0.0015,0.0390807611844575,-0.0154557611844575));
#2467=CARTESIAN_POINT('',(-0.0015,0.039,-0.015375));
#2468=CARTESIAN_POINT('',(-0.0015,0.0390807611844575,-0.0154557611844575));
#2469=CARTESIAN_POINT('',(0.,0.0390807611844575,-0.0154557611844575));
#2470=CARTESIAN_POINT('',(0.,0.039,-0.015375));
#2471=CARTESIAN_POINT('',(0.018,0.039,-0.015375));
#2472=CARTESIAN_POINT('',(0.018,0.04,-0.015375));
#2473=CARTESIAN_POINT('',(0.018,0.039,-0.015375));
#2474=CARTESIAN_POINT('',(0.018,0.039,-0.015375));
#2475=CARTESIAN_POINT('',(0.018,0.039,-0.015375));
#2476=CARTESIAN_POINT('',(0.018,0.039,2.11874623020068E-19));
#2477=CARTESIAN_POINT('',(0.018,0.039,0.015375));
#2478=CARTESIAN_POINT('',(0.018,0.04,0.015375));
#2479=CARTESIAN_POINT('',(0.018,0.039,0.015375));
#2480=CARTESIAN_POINT('',(0.018,0.039,0.015375));
#2481=CARTESIAN_POINT('',(0.018,0.039,0.015375));
#2482=CARTESIAN_POINT('',(3.46944695195361E-18,0.039,0.015375));
#2483=CARTESIAN_POINT('',(-0.018,0.039,0.015375));
#2484=CARTESIAN_POINT('',(-0.018,0.04,0.015375));
#2485=CARTESIAN_POINT('',(-0.018,0.039,0.015375));
#2486=CARTESIAN_POINT('',(-0.018,0.039,0.015375));
#2487=CARTESIAN_POINT('',(-0.018,0.039,0.015375));
#2488=CARTESIAN_POINT('',(-0.018,0.039,3.81374321436122E-18));
#2489=CARTESIAN_POINT('',(-0.018,0.039,-0.015375));
#2490=CARTESIAN_POINT('',(-0.018,0.04,-0.015375));
#2491=CARTESIAN_POINT('',(-0.018,0.039,-0.015375));
#2492=CARTESIAN_POINT('',(-0.018,0.039,-0.015375));
#2493=CARTESIAN_POINT('',(-0.018,0.039,-0.015375));
#2494=CARTESIAN_POINT('',(0.,0.039,-0.015375));
#2495=MECHANICAL_DESIGN_GEOMETRIC_PRESENTATION_REPRESENTATION('',(#1407,
#27,#28,#29,#30,#31,#32,#33,#34,#35,#36,#37,#38,#39,#40,#41,#42,#43,#44,
#45,#46,#47,#48,#49,#50,#51,#52,#53,#54,#55,#56,#57,#58,#59,#60,#61,#62,
#63,#64,#65,#66),#2496);
#2496=(
GEOMETRIC_REPRESENTATION_CONTEXT(3)
GLOBAL_UNCERTAINTY_ASSIGNED_CONTEXT((#2497))
GLOBAL_UNIT_ASSIGNED_CONTEXT((#2500,#2499,#2498))
REPRESENTATION_CONTEXT('AZSR190-1A-24D Relay','TOP_LEVEL_ASSEMBLY_PART')
);
#2497=UNCERTAINTY_MEASURE_WITH_UNIT(LENGTH_MEASURE(1.E-8),#2500,
'DISTANCE_ACCURACY_VALUE','Maximum Tolerance applied to model');
#2498=(
NAMED_UNIT(*)
SI_UNIT($,.STERADIAN.)
SOLID_ANGLE_UNIT()
);
#2499=(
NAMED_UNIT(*)
PLANE_ANGLE_UNIT()
SI_UNIT($,.RADIAN.)
);
#2500=(
LENGTH_UNIT()
NAMED_UNIT(*)
SI_UNIT($,.METRE.)
);
#2501=PRODUCT_DEFINITION_SHAPE('','',#2502);
#2502=PRODUCT_DEFINITION('','',#2504,#2503);
#2503=PRODUCT_DEFINITION_CONTEXT('',#2510,'design');
#2504=PRODUCT_DEFINITION_FORMATION_WITH_SPECIFIED_SOURCE('','',#2506,
 .NOT_KNOWN.);
#2505=PRODUCT_RELATED_PRODUCT_CATEGORY('','',(#2506));
#2506=PRODUCT('AZSR190-1A-24D Relay','AZSR190-1A-24D Relay',
'AZSR190-1A-24D Relay',(#2508));
#2507=PRODUCT_CATEGORY('','');
#2508=PRODUCT_CONTEXT('',#2510,'mechanical');
#2509=APPLICATION_PROTOCOL_DEFINITION('international standard',
'ap242_managed_model_based_3d_engineering',2011,#2510);
#2510=APPLICATION_CONTEXT('managed model based 3d engineering');
ENDSEC;
END-ISO-10303-21;
